<?xml version="1.0" encoding="UTF-8"?>
<svg id="Calque_1" data-name="Calque 1" xmlns="http://www.w3.org/2000/svg" viewBox="0 0 180 180">
  <defs>
    <style>
      .cls-1 {
        fill: #252563;
      }

      .cls-1, .cls-2, .cls-3 {
        stroke-width: 0px;
      }

      .cls-2 {
        fill: #fff;
      }

      .cls-3 {
        fill: #f13327;
      }
    </style>
  </defs>
  <rect class="cls-2" x="4.24" y="5.57" width="171.51" height="168.86" rx="44.32" ry="44.32"/>
  <g>
    <path class="cls-3" d="m40.23,53.51c11.93-3.89,22.02-4.88,29-5.05,47.1-1.17,77.73,31.83,84.15,43.24,1.03,1.84,3.52,6.26,3.49,12.2,0,0-.04,7.96-5.7,15.21-13.69,17.54-53.45,9.08-59.27,7.77-8.42-1.9-21.62-5.95-36.29-15.53,5.01,3.92,12.48,9.04,22.34,13.31,31.52,13.64,67.74,9.99,80.03-3.17,3.68-3.94,5.39-8.56,5.39-8.56,3.27-8.88.3-17.36-.95-20.92-6.86-19.57-35.52-38.42-64.66-45.01-21.51-4.87-36.13-1.44-40.24-.37-7.42,1.93-13.27,4.68-17.28,6.87Z"/>
    <path class="cls-1" d="m98.39,43.53c-2.97-.56-7.62-1.32-13.35-1.83-17.11-1.51-35.49-3.13-49.25,7.37-2.19,1.67-11.11,8.48-12.52,19.33-.33,2.51-.57,7.7,2.85,15.05,8.17,17.54,35.55,43.77,74.96,51.98,22.48,4.68,37.2,1.08,42.15-.32,6.59-1.86,11.81-4.29,15.37-6.18-2.15,1.66-5.41,3.93-9.67,6.02-6.77,3.32-18.08,7.19-39.14,5.07-10.59-1.07-43.8-4.86-72.9-29.63-14.71-12.53-18.96-22.41-20.6-29.48-.82-3.53-2.34-10.49.48-18.22,2.94-8.07,8.96-12.48,12.04-14.74,12.87-9.42,39.04-11.43,69.57-4.44Z"/>
  </g>
  <path class="cls-1" d="m91.01,72.5v26.7l-17.75,8.3h-8.05v-35h25.8Zm-8,7.35h-9.75v19.25l9.75-4.5v-14.75Z"/>
  <path class="cls-3" d="m103.56,86.25h16.15v21.25h-24.15v-7.35h16.15v-6.55h-16.15v-21.1h24.15v7.4h-16.15v6.35Z"/>
</svg>