<?xml version="1.0" encoding="UTF-8"?>
<svg version="1.1" xmlns="http://www.w3.org/2000/svg" width="500" height="500">
<path d="M0 0 C4.36496931 0.01638751 8.72957965 -0.01934197 13.0944432 -0.04797459 C21.62484385 -0.09549407 30.15456244 -0.09454452 38.68504802 -0.07531086 C45.62484881 -0.06039902 52.56445288 -0.0624649 59.50425422 -0.07637882 C60.99083261 -0.07931364 60.99083261 -0.07931364 62.50744289 -0.08230774 C64.52134224 -0.08633025 66.53524153 -0.09037958 68.54914077 -0.09445545 C87.39772364 -0.13039353 106.24592486 -0.10981143 125.09448006 -0.07068393 C141.23028332 -0.03866502 157.36532595 -0.05967167 173.50104415 -0.11837864 C192.28159692 -0.18670765 211.06167283 -0.21843674 229.84235102 -0.19516635 C231.84939282 -0.19280294 233.85643469 -0.19049934 235.86347663 -0.18825626 C237.34435263 -0.18659568 237.34435263 -0.18659568 238.85514531 -0.18490155 C245.77660129 -0.17973183 252.69768872 -0.20066962 259.61906517 -0.23227787 C268.06889011 -0.27030802 276.51763431 -0.26887478 284.96741072 -0.21829382 C289.27030377 -0.19354341 293.57130866 -0.18565281 297.87412155 -0.22654438 C316.92303044 -0.3941183 332.0187836 0.43152401 347.88458908 12.20584011 C349.34938865 13.21618092 350.81748857 14.22175457 352.28894413 15.22237682 C364.65667092 23.66670767 377.4031562 34.88370108 385.29843539 47.71443236 C386.84578589 50.22742918 386.84578589 50.22742918 388.671691 52.52230871 C394.45358785 60.38204944 394.87790803 67.38845267 394.76674545 76.78045559 C394.77410632 78.33860147 394.78451967 79.89673538 394.79769808 81.45484293 C394.82485378 85.71138976 394.80867256 89.96681111 394.78500271 94.22333765 C394.76705076 98.82328655 394.789546 103.42306701 394.80678451 108.02299404 C394.83401545 117.02371718 394.82364482 126.02401887 394.79987101 135.0247369 C394.78130891 142.34040941 394.77682804 149.65596668 394.78236091 156.97165966 C394.78314482 158.01388195 394.78392873 159.05610425 394.78473639 160.12990903 C394.78640221 162.24730961 394.788106 164.36471015 394.78984734 166.48211066 C394.80462522 186.32270553 394.77731465 206.16306923 394.73502889 226.00361352 C394.69965921 243.02228056 394.69807992 260.04067167 394.72174728 277.05935574 C394.74921835 296.83328347 394.75745665 316.60705515 394.73381239 336.38099325 C394.73133095 338.48987951 394.72886748 340.59876579 394.72642219 342.70765209 C394.72520155 343.74521039 394.72398091 344.78276869 394.72272328 345.85176814 C394.71539471 353.15841722 394.72160819 360.46498301 394.73292625 367.77162457 C394.74627396 376.67620626 394.73798432 385.58045938 394.70218972 394.48498417 C394.6844484 399.02699367 394.67621886 403.56848004 394.69402969 408.11050129 C394.71005782 412.27066565 394.6982504 416.42979977 394.6644934 420.58984952 C394.65711403 422.09234767 394.65977132 423.59493679 394.67363963 425.09738906 C394.74999012 434.09933356 393.86382563 440.18208585 387.88458908 447.20584011 C386.77429087 449.01459055 385.66902345 450.82645397 384.57208908 452.64334011 C380.91469681 458.41138606 376.60407803 463.28936379 371.88458908 468.20584011 C371.23619064 468.90580105 370.5877922 469.60576199 369.91974533 470.32693386 C358.40755434 482.40414036 343.01486815 491.41224461 327.88458908 498.20584011 C326.79059767 498.71973986 325.69660627 499.2336396 324.56946361 499.76311207 C318.53466602 501.98741315 312.33066102 501.63302533 305.97737777 501.61370754 C304.56365163 501.62003481 303.14993077 501.62765193 301.7362178 501.63644159 C297.86492455 501.65667573 293.99381695 501.65827234 290.12247944 501.6566503 C285.94157982 501.65809813 281.76074995 501.67669641 277.57988632 501.69290066 C268.44314383 501.72498001 259.30645789 501.73483144 250.16966641 501.74054289 C244.45874189 501.74429856 238.74783237 501.75311069 233.03691566 501.7630415 C217.20869851 501.7899786 201.38049584 501.81248924 185.5522536 501.81491947 C184.53995286 501.81507505 183.52765211 501.81523062 182.48467558 501.81539091 C180.43269396 501.81568195 178.38071233 501.81596732 176.32873071 501.81624706 C174.80092528 501.81646134 174.80092528 501.81646134 173.24225509 501.81667995 C172.2224669 501.81681962 171.20267871 501.81695929 170.15198784 501.81710319 C153.64188945 501.8202359 137.13205387 501.85679984 120.62204219 501.90831621 C103.65003514 501.96084953 86.67815763 501.98703154 69.70606738 501.98647058 C60.18554423 501.98672265 50.66532293 501.9978424 41.14487541 502.03764629 C33.03499291 502.0713812 24.92552973 502.08064135 16.81559873 502.05888934 C12.68361535 502.04850394 8.55245164 502.04905071 4.42055786 502.08065319 C-27.13280969 502.3076444 -27.13280969 502.3076444 -41.11541092 494.20584011 C-42.05933418 493.71131155 -43.00325743 493.21678299 -43.97578442 492.70726871 C-46.17624698 491.544864 -48.26654961 490.29168716 -50.36541092 488.95584011 C-51.10718583 488.49258327 -51.84896073 488.02932644 -52.61321366 487.55203152 C-59.67023791 483.03912806 -65.9754639 477.88656672 -72.11541092 472.20584011 C-72.92236405 471.46849636 -73.72931717 470.73115261 -74.56072342 469.97146511 C-87.43425874 457.6810516 -105.28135139 436.22151914 -106.24766409 417.66630399 C-106.25107888 416.64078133 -106.25449367 415.61525866 -106.25801194 414.55865955 C-106.26431988 413.3753324 -106.27062782 412.19200524 -106.27712691 410.97281969 C-106.2789889 409.66634088 -106.2808509 408.35986207 -106.28276932 407.01379299 C-106.28821535 405.61676104 -106.29407877 404.21973066 -106.30032504 402.82270205 C-106.31619087 398.97436929 -106.32569645 395.12604292 -106.33408988 391.27768755 C-106.34209025 387.97876851 -106.35378182 384.67986673 -106.36550468 381.38095914 C-106.40743792 369.55958775 -106.43463101 357.73819607 -106.45916092 345.91677761 C-106.46113582 344.98331762 -106.46311072 344.04985764 -106.46514547 343.08811098 C-106.50432482 324.54462436 -106.53802018 306.00113098 -106.56022751 287.45761585 C-106.56519669 283.37922436 -106.57024101 279.30083297 -106.57537186 275.22244167 C-106.57664253 274.20879782 -106.5779132 273.19515396 -106.57922238 272.15079363 C-106.60055351 255.7535573 -106.6495177 239.35652222 -106.70961601 222.95938699 C-106.77084577 206.11411717 -106.80543143 189.26895089 -106.81470072 172.42357123 C-106.82059932 162.97001875 -106.83823133 153.51680656 -106.88608658 144.06336498 C-106.92683477 136.00645254 -106.94350956 127.94993597 -106.92943376 119.89292513 C-106.92299796 115.78728345 -106.92757262 111.6824835 -106.9633075 107.57697392 C-107.22401151 75.93613995 -107.22401151 75.93613995 -99.11541092 62.20584011 C-98.73869468 61.56103844 -98.36197844 60.91623678 -97.97384655 60.25189567 C-93.35146899 52.39397916 -88.03112168 45.14586655 -82.11541092 38.20584011 C-81.4528328 37.39759792 -80.79025467 36.58935574 -80.10759842 35.75662136 C-73.9132459 28.47654285 -66.74421888 22.87825011 -59.11541092 17.20584011 C-57.86630936 16.2487112 -57.86630936 16.2487112 -56.59197342 15.27224636 C-55.08836609 14.1612191 -53.55127392 13.09389449 -51.98221982 12.07738781 C-49.97840726 10.76923267 -48.02262798 9.38583569 -46.1085645 7.9495573 C-32.27147423 -1.5229503 -16.04408962 -0.09647176 0 0 Z " fill="#252562" transform="translate(106.11541092395782,-1.2058401107788086)"/>
<path d="M0 0 C3.42677593 0.01070107 6.85302526 0.00005999 10.27978516 -0.01269531 C21.54005922 -0.01915373 32.58020154 0.28333666 43.74633789 1.78930664 C47.76558097 2.28551266 51.70761887 2.52018276 55.75244141 2.69824219 C62.18772583 3.05998895 68.24417299 4.05901139 74.53369141 5.43652344 C80.10477557 6.63012539 85.75431096 7.39277873 91.39624023 8.17041016 C97.34858722 9.044388 97.34858722 9.044388 99.56494141 11.26074219 C92.17550892 11.38598681 92.17550892 11.38598681 89.12744141 10.76074219 C85.26035171 10.0061881 81.49145762 10.1249193 77.56494141 10.26074219 C76.66259766 10.28910156 75.76025391 10.31746094 74.83056641 10.34667969 C73.93853516 10.40082031 73.04650391 10.45496094 72.12744141 10.51074219 C71.30373047 10.55714844 70.48001953 10.60355469 69.63134766 10.65136719 C68.94943359 10.85246094 68.26751953 11.05355469 67.56494141 11.26074219 C66.87547763 12.58243123 66.20857828 13.91614046 65.56494141 15.26074219 C63.50463867 15.88671875 63.50463867 15.88671875 61.56494141 16.26074219 C62.20069092 16.3202002 62.83644043 16.3796582 63.49145508 16.44091797 C90.73624449 19.07586688 116.55090615 24.75712091 142.5 33.27172852 C146.16520903 34.45444014 149.85200448 35.5491869 153.55249023 36.61572266 C156.38988707 37.52514913 158.92566949 38.8861214 161.56494141 40.26074219 C162.97624912 40.83655573 164.39378582 41.39718186 165.81494141 41.94824219 C179.14755111 47.22113896 192.07822296 53.21589212 204.56494141 60.26074219 C205.23879883 60.63956543 205.91265625 61.01838867 206.60693359 61.40869141 C252.12984935 87.16702181 294.72775451 122.43285923 309.56494141 174.26074219 C309.77030518 174.96021973 309.97566895 175.65969727 310.18725586 176.38037109 C314.27312102 192.09861211 313.84106473 213.6509009 306.56494141 228.26074219 C306.10732422 229.23140625 305.64970703 230.20207031 305.17822266 231.20214844 C296.80878506 247.688794 285.23322099 259.28120943 269.06494141 267.88183594 C266.26953886 269.42367515 263.82846225 270.99722134 261.56494141 273.26074219 C261.56494141 274.25074219 261.56494141 275.24074219 261.56494141 276.26074219 C262.55494141 276.26074219 263.54494141 276.26074219 264.56494141 276.26074219 C263.56494141 279.26074219 263.56494141 279.26074219 261.56494141 281.26074219 C262.22494141 282.25074219 262.88494141 283.24074219 263.56494141 284.26074219 C263.23494141 284.92074219 262.90494141 285.58074219 262.56494141 286.26074219 C271.02535667 283.00140188 279.19552899 279.61374158 287.17431641 275.26464844 C289.56494141 274.26074219 289.56494141 274.26074219 292.56494141 275.26074219 C285.23778109 280.10353721 277.85004495 284.77170159 270.18994141 289.07324219 C269.54927734 289.43345459 268.90861328 289.79366699 268.24853516 290.16479492 C266.3623387 291.21314097 264.46742484 292.24227059 262.56494141 293.26074219 C261.92379395 293.60540527 261.28264648 293.95006836 260.62207031 294.30517578 C255.78283679 296.82329656 250.89860094 298.65690274 245.68994141 300.26074219 C244.86913086 300.5156543 244.04832031 300.77056641 243.20263672 301.03320312 C237.61782096 302.72809746 232.00704897 304.2222458 226.31494141 305.51074219 C225.6563916 305.6615625 224.9978418 305.81238281 224.31933594 305.96777344 C222.07463685 306.44959427 219.82643817 306.86472878 217.56494141 307.26074219 C216.56285645 307.43951904 215.56077148 307.6182959 214.52832031 307.80249023 C202.52889341 309.68027592 190.5584009 309.61537063 178.43994141 309.57324219 C177.32934357 309.57108704 176.21874573 309.56893188 175.07449341 309.56671143 C157.73151346 309.51272574 140.72903469 308.95101621 123.56494141 306.26074219 C122.28022949 306.06206543 120.99551758 305.86338867 119.671875 305.65869141 C92.30545598 301.34511564 64.39493191 295.39772975 38.56494141 285.26074219 C37.55608887 284.8757959 36.54723633 284.49084961 35.5078125 284.09423828 C31.91811004 282.72386393 28.33508184 281.33696532 24.75244141 279.94824219 C23.54523438 279.48740234 22.33802734 279.0265625 21.09423828 278.55175781 C14.42985338 275.96025281 8.16560601 273.1061595 1.94604492 269.57861328 C-1.08820955 267.89924225 -4.23655686 266.5959307 -7.43505859 265.26074219 C-38.31614647 250.38290029 -66.66332145 229.88856153 -91.43505859 206.26074219 C-92.58748047 205.17986328 -92.58748047 205.17986328 -93.76318359 204.07714844 C-95.43505859 202.26074219 -95.43505859 202.26074219 -95.43505859 200.26074219 C-96.02158203 199.99777344 -96.60810547 199.73480469 -97.21240234 199.46386719 C-106.11121432 194.64693557 -112.43738757 184.18801611 -118.43505859 176.26074219 C-119.36125 175.06191406 -119.36125 175.06191406 -120.30615234 173.83886719 C-138.51165506 149.21559733 -148.85425335 117.52271463 -144.99755859 86.77246094 C-140.25967427 60.6252618 -124.46837782 40.43781864 -103.11035156 25.40136719 C-93.72991729 19.01468853 -83.97113542 14.56288645 -73.25585938 10.89257812 C-71.65823759 10.33818751 -70.07454173 9.74399873 -68.49365234 9.14355469 C-62.17630427 6.82509693 -55.77683735 5.40934957 -49.18505859 4.13574219 C-48.36432861 3.97702637 -47.54359863 3.81831055 -46.69799805 3.65478516 C-43.94901155 3.14995052 -41.19557082 2.69824714 -38.43505859 2.26074219 C-37.33726074 2.07833984 -36.23946289 1.8959375 -35.10839844 1.70800781 C-23.42256768 -0.01234239 -11.7952333 -0.04374213 0 0 Z " fill="#262662" transform="translate(170.43505859375,93.7392578125)"/>
<path d="M0 0 C1.03117447 -0.00705963 2.06234894 -0.01411926 3.12477112 -0.02139282 C46.22794298 -0.24915975 46.22794298 -0.24915975 65.390625 3.203125 C66.50953125 3.39648438 67.6284375 3.58984375 68.78125 3.7890625 C86.43888147 6.91191872 103.32108888 11.6344386 120.32568359 17.21411133 C123.99089262 18.39682295 127.67768807 19.49156972 131.37817383 20.55810547 C134.21557067 21.46753195 136.75135308 22.82850421 139.390625 24.203125 C140.80193271 24.77893855 142.21946941 25.33956467 143.640625 25.890625 C156.9732347 31.16352177 169.90390655 37.15827493 182.390625 44.203125 C183.06448242 44.58194824 183.73833984 44.96077148 184.43261719 45.35107422 C229.95553294 71.10940462 272.55343811 106.37524205 287.390625 158.203125 C287.59598877 158.90260254 287.80135254 159.60208008 288.01293945 160.32275391 C292.09880462 176.04099492 291.66674832 197.59328371 284.390625 212.203125 C283.93300781 213.17378906 283.47539062 214.14445313 283.00390625 215.14453125 C270.99212248 238.80609984 250.84833047 252.57945603 226.18847656 260.95068359 C216.18772524 264.1008545 206.02137526 266.29135988 195.66064453 267.84716797 C193.36245149 268.20754283 191.08029397 268.6273086 188.79296875 269.05078125 C175.17896144 271.37518883 161.60359057 271.52669017 147.828125 271.578125 C146.41339905 271.58977188 146.41339905 271.58977188 144.97009277 271.60165405 C128.52587302 271.70823762 112.38746645 270.37600586 96.33978271 266.65031433 C93.43455516 265.9837768 90.50630866 265.44626404 87.578125 264.890625 C81.41374524 263.66271032 75.30547566 262.27147468 69.203125 260.765625 C68.011427 260.47594849 68.011427 260.47594849 66.7956543 260.18041992 C55.60440697 257.37315893 44.83698167 253.33392512 34.078125 249.203125 C32.38719727 248.56503906 32.38719727 248.56503906 30.66210938 247.9140625 C21.5011042 244.40261313 21.5011042 244.40261313 17.72265625 242.140625 C14.99412893 240.55404874 12.57810342 239.45116639 9.65234375 238.34375 C3.84052695 236.08524357 -1.43223284 233.11283285 -6.796875 229.953125 C-8.33226929 229.05352051 -8.33226929 229.05352051 -9.89868164 228.13574219 C-40.85362164 209.71463172 -40.85362164 209.71463172 -43.609375 204.203125 C-39.57784723 205.63770149 -36.38472013 207.60425314 -32.859375 210.015625 C-26.13347502 214.47770375 -19.0830222 218.23995713 -11.921875 221.953125 C-10.35518066 222.76680542 -10.35518066 222.76680542 -8.75683594 223.59692383 C3.24416741 229.76110995 15.23895293 234.91477368 28.0703125 239.04296875 C30.76769483 239.98546587 33.36480996 241.0163867 36 242.11328125 C41.80155666 244.45310862 47.722615 246.10936908 53.765625 247.703125 C54.91192383 248.00645752 56.05822266 248.30979004 57.23925781 248.62231445 C73.82582246 252.94467054 90.39884232 255.75539731 107.38964844 257.8972168 C109.24638184 258.13178589 109.24638184 258.13178589 111.140625 258.37109375 C112.24921875 258.50797607 113.3578125 258.6448584 114.5 258.78588867 C117.390625 259.203125 117.390625 259.203125 119.29804993 259.71913147 C121.51709703 260.23237683 123.48657256 260.34355649 125.76245117 260.36425781 C127.05369904 260.37845009 127.05369904 260.37845009 128.37103271 260.39292908 C129.76325043 260.39952293 129.76325043 260.39952293 131.18359375 260.40625 C132.15419739 260.41326431 133.12480103 260.42027863 134.12481689 260.42750549 C137.27596623 260.44507468 140.42692837 260.4513656 143.578125 260.453125 C144.64596222 260.45379974 145.71379944 260.45447449 146.81399536 260.45516968 C166.99618355 260.434823 186.66352509 260.12315405 205.91015625 253.41015625 C210.9837854 251.65061483 216.16492303 250.42047603 221.390625 249.203125 C221.390625 248.543125 221.390625 247.883125 221.390625 247.203125 C222.06609375 246.87699219 222.7415625 246.55085937 223.4375 246.21484375 C224.32953125 245.77785156 225.2215625 245.34085938 226.140625 244.890625 C227.46320313 244.24673828 227.46320313 244.24673828 228.8125 243.58984375 C231.40723315 242.27946428 231.40723315 242.27946428 233.59375 240.53515625 C235.390625 239.203125 235.390625 239.203125 237.390625 239.203125 C237.390625 238.543125 237.390625 237.883125 237.390625 237.203125 C238.53639096 236.15556755 239.7345606 235.16502783 240.953125 234.203125 C253.18453484 223.71598312 263.03442654 204.56315251 264.2890625 188.41796875 C264.33933594 187.32162109 264.33933594 187.32162109 264.390625 186.203125 C264.46539062 185.23503906 264.54015625 184.26695312 264.6171875 183.26953125 C265.56530807 161.6873131 256.13023935 143.22814055 242.390625 127.203125 C241.01021951 125.4782705 239.63522807 123.74906949 238.265625 122.015625 C220.37775765 99.68204503 198.38105289 81.45006231 174.61572266 65.68481445 C173.13470005 64.69860355 171.66032639 63.70233259 170.19287109 62.69604492 C164.60928385 58.88882957 158.84378418 55.58368791 152.890625 52.390625 C151.93373779 51.87435547 150.97685059 51.35808594 149.9909668 50.82617188 C148.04893353 49.77972784 146.10583062 48.73526626 144.16162109 47.69287109 C141.62366783 46.32841376 139.09390706 44.95009777 136.56640625 43.56640625 C129.91336491 39.94676629 123.40601317 36.52802361 116.19140625 34.14453125 C114.16699239 33.46407973 112.16605257 32.71240109 110.18359375 31.91796875 C92.13831832 24.71138911 72.60305463 19.18642153 53.390625 16.203125 C52.61235352 16.07067383 51.83408203 15.93822266 51.03222656 15.80175781 C10.33767615 9.00660774 -35.1140399 11.63835006 -74.609375 23.3828125 C-75.8675 23.75664062 -77.125625 24.13046875 -78.421875 24.515625 C-79.54207031 24.86238281 -80.66226563 25.20914063 -81.81640625 25.56640625 C-84.609375 26.203125 -84.609375 26.203125 -87.609375 25.203125 C-72.90753953 17.59139941 -58.3457729 11.56103278 -42.421875 6.953125 C-41.24592773 6.61152344 -40.06998047 6.26992187 -38.85839844 5.91796875 C-31.48617106 3.84058557 -24.18209004 2.32380271 -16.609375 1.203125 C-15.28208374 0.93628906 -15.28208374 0.93628906 -13.92797852 0.6640625 C-9.28136889 0.01867156 -4.68621013 0.02103998 0 0 Z " fill="#F7F7F8" transform="translate(192.609375,109.796875)"/>
<path d="M0 0 C3.42677593 0.01070107 6.85302526 0.00005999 10.27978516 -0.01269531 C21.54005922 -0.01915373 32.58020154 0.28333666 43.74633789 1.78930664 C47.76558097 2.28551266 51.70761887 2.52018276 55.75244141 2.69824219 C62.18772583 3.05998895 68.24417299 4.05901139 74.53369141 5.43652344 C80.10477557 6.63012539 85.75431096 7.39277873 91.39624023 8.17041016 C97.34858722 9.044388 97.34858722 9.044388 99.56494141 11.26074219 C94.71498766 11.45474034 90.21258352 11.12149333 85.41259766 10.38574219 C38.07196916 3.46757721 -19.23825944 -3.55972162 -63.43505859 18.94824219 C-64.0945752 19.28218994 -64.7540918 19.6161377 -65.43359375 19.96020508 C-76.55283468 25.76993529 -86.50226743 33.47986924 -95.43505859 42.26074219 C-96.19302734 43.00582031 -96.95099609 43.75089844 -97.73193359 44.51855469 C-112.72874882 60.18764094 -119.87966536 78.82475135 -119.87158203 100.36279297 C-119.4827149 116.00744004 -114.09704475 129.82012721 -106.43505859 143.26074219 C-106.03544922 143.97584961 -105.63583984 144.69095703 -105.22412109 145.42773438 C-98.47195184 157.40654397 -90.45819642 167.91136204 -81.43505859 178.26074219 C-80.84740723 178.93685547 -80.25975586 179.61296875 -79.65429688 180.30957031 C-54.51560737 209.14532766 -25.36762843 232.05838968 7.71728516 251.18261719 C10.12680384 252.58859426 12.50162453 254.04870103 14.87744141 255.51074219 C21.84803884 259.70975395 29.15143557 263.26836551 36.64233398 266.43676758 C38.73773234 267.33479544 40.81492139 268.2688165 42.89306641 269.20605469 C57.14072743 275.55587328 71.70211102 280.55630812 86.56494141 285.26074219 C87.37946777 285.52371094 88.19399414 285.78667969 89.03320312 286.05761719 C104.99613533 291.19658933 121.51045361 294.43679581 138.06494141 297.01074219 C139.15512573 297.18404053 139.15512573 297.18404053 140.26733398 297.36083984 C189.49797916 304.54883036 243.0711683 299.72224022 287.05322266 275.37792969 C289.56494141 274.26074219 289.56494141 274.26074219 292.56494141 275.26074219 C285.23778109 280.10353721 277.85004495 284.77170159 270.18994141 289.07324219 C269.54927734 289.43345459 268.90861328 289.79366699 268.24853516 290.16479492 C266.3623387 291.21314097 264.46742484 292.24227059 262.56494141 293.26074219 C261.92379395 293.60540527 261.28264648 293.95006836 260.62207031 294.30517578 C255.78283679 296.82329656 250.89860094 298.65690274 245.68994141 300.26074219 C244.86913086 300.5156543 244.04832031 300.77056641 243.20263672 301.03320312 C237.61782096 302.72809746 232.00704897 304.2222458 226.31494141 305.51074219 C225.6563916 305.6615625 224.9978418 305.81238281 224.31933594 305.96777344 C222.07463685 306.44959427 219.82643817 306.86472878 217.56494141 307.26074219 C216.56285645 307.43951904 215.56077148 307.6182959 214.52832031 307.80249023 C202.52889341 309.68027592 190.5584009 309.61537063 178.43994141 309.57324219 C177.32934357 309.57108704 176.21874573 309.56893188 175.07449341 309.56671143 C157.73151346 309.51272574 140.72903469 308.95101621 123.56494141 306.26074219 C122.28022949 306.06206543 120.99551758 305.86338867 119.671875 305.65869141 C92.30545598 301.34511564 64.39493191 295.39772975 38.56494141 285.26074219 C37.55608887 284.8757959 36.54723633 284.49084961 35.5078125 284.09423828 C31.91811004 282.72386393 28.33508184 281.33696532 24.75244141 279.94824219 C23.54523438 279.48740234 22.33802734 279.0265625 21.09423828 278.55175781 C14.42985338 275.96025281 8.16560601 273.1061595 1.94604492 269.57861328 C-1.08820955 267.89924225 -4.23655686 266.5959307 -7.43505859 265.26074219 C-38.31614647 250.38290029 -66.66332145 229.88856153 -91.43505859 206.26074219 C-92.58748047 205.17986328 -92.58748047 205.17986328 -93.76318359 204.07714844 C-95.43505859 202.26074219 -95.43505859 202.26074219 -95.43505859 200.26074219 C-96.02158203 199.99777344 -96.60810547 199.73480469 -97.21240234 199.46386719 C-106.11121432 194.64693557 -112.43738757 184.18801611 -118.43505859 176.26074219 C-119.36125 175.06191406 -119.36125 175.06191406 -120.30615234 173.83886719 C-138.51165506 149.21559733 -148.85425335 117.52271463 -144.99755859 86.77246094 C-140.25967427 60.6252618 -124.46837782 40.43781864 -103.11035156 25.40136719 C-93.72991729 19.01468853 -83.97113542 14.56288645 -73.25585938 10.89257812 C-71.65823759 10.33818751 -70.07454173 9.74399873 -68.49365234 9.14355469 C-62.17630427 6.82509693 -55.77683735 5.40934957 -49.18505859 4.13574219 C-48.36432861 3.97702637 -47.54359863 3.81831055 -46.69799805 3.65478516 C-43.94901155 3.14995052 -41.19557082 2.69824714 -38.43505859 2.26074219 C-37.33726074 2.07833984 -36.23946289 1.8959375 -35.10839844 1.70800781 C-23.42256768 -0.01234239 -11.7952333 -0.04374213 0 0 Z " fill="#F7F7F8" transform="translate(170.43505859375,93.7392578125)"/>
<path d="M0 0 C30.03 0 60.06 0 91 0 C91 31.02 91 62.04 91 94 C88.03 95.32 85.06 96.64 82 98 C71.66385465 102.61717976 61.34041435 107.23824053 51.25 112.375 C36.26533193 120 36.26533193 120 32 120 C31.67 120.99 31.34 121.98 31 123 C20.77 123 10.54 123 0 123 C0 82.41 0 41.82 0 0 Z " fill="#F8F8F8" transform="translate(156,184)"/>
<path d="M0 0 C28.05 0 56.1 0 85 0 C85 8.58 85 17.16 85 26 C66.52 26 48.04 26 29 26 C29 33.26 29 40.52 29 48 C47.48 48 65.96 48 85 48 C85 72.42 85 96.84 85 122 C57.28 122 29.56 122 1 122 C1 113.75 1 105.5 1 97 C19.48 97 37.96 97 57 97 C57 89.41 57 81.82 57 74 C38.19 74 19.38 74 0 74 C0 49.58 0 25.16 0 0 Z " fill="#FAFAFB" transform="translate(262,184)"/>
<path d="M0 0 C10.89 0 21.78 0 33 0 C33 17.16 33 34.32 33 52 C29.7 53.32 26.4 54.64 23 56 C20.96385401 56.96844042 18.93990561 57.96359316 16.9375 59 C3.16846447 66 3.16846447 66 0 66 C0 44.22 0 22.44 0 0 Z " fill="#252661" transform="translate(185,210)"/>
<path d="M0 0 C4.03152777 1.43457649 7.22465487 3.40112814 10.75 5.8125 C17.47589998 10.27457875 24.5263528 14.03683213 31.6875 17.75 C32.73196289 18.29245361 33.77642578 18.83490723 34.85253906 19.39379883 C46.85354241 25.55798495 58.84832793 30.71164868 71.6796875 34.83984375 C74.38452237 35.78494487 76.98417836 36.82222526 79.625 37.92578125 C85.33261343 40.23207708 91.16007233 41.76256256 97.125 43.25 C98.176875 43.518125 99.22875 43.78625 100.3125 44.0625 C102.87353109 44.71439882 105.43594749 45.36010893 108 46 C108 46.33 108 46.66 108 47 C106.88625 47.12375 105.7725 47.2475 104.625 47.375 C100.96896323 47.6465813 100.96896323 47.6465813 99 50 C99.66 50.66 100.32 51.32 101 52 C94.99852203 51.47284315 90.0599867 50.15020993 84.5 47.875 C83.72027832 47.56296631 82.94055664 47.25093262 82.13720703 46.92944336 C79.75196083 45.96727649 77.37470184 44.98787995 75 44 C74.29713867 43.70786621 73.59427734 43.41573242 72.87011719 43.11474609 C51.14588326 34.00475169 30.74054469 22.86371672 11.375 9.4375 C10.36042725 8.73431641 9.34585449 8.03113281 8.30053711 7.30664062 C1.13091533 2.26183067 1.13091533 2.26183067 0 0 Z " fill="#E5E5ED" transform="translate(149,314)"/>
<path d="M0 0 C1.67628983 -0.0024472 1.67628983 -0.0024472 3.38644409 -0.00494385 C15.53210351 -0.00294154 27.4822205 0.30421812 39.5300293 1.90795898 C43.55732129 2.39714621 47.51060216 2.6334788 51.5625 2.8125 C57.99778442 3.17424676 64.05423158 4.1732692 70.34375 5.55078125 C75.91483416 6.74438321 81.56436955 7.50703654 87.20629883 8.28466797 C93.15864581 9.15864581 93.15864581 9.15864581 95.375 11.375 C90.52504626 11.56899815 86.02264212 11.23575115 81.22265625 10.5 C43.71269113 5.01844778 2.62263794 0.29529145 -34.734375 8.59765625 C-38.625 9.375 -38.625 9.375 -41.625 8.375 C-38.325 7.055 -35.025 5.735 -31.625 4.375 C-37.3663962 4.21551677 -42.16357658 4.33566913 -47.6640625 5.9296875 C-50.99858291 6.68692919 -54.22001892 6.49660647 -57.625 6.375 C-43.3938897 -3.11240686 -16.2475514 -0.01117487 0 0 Z " fill="#D9DAE6" transform="translate(174.625,93.625)"/>
<path d="M0 0 C9.49971828 1.0972319 19.05740262 2.45074878 28 6 C28.99 7.485 28.99 7.485 30 9 C32.32291256 9.41171025 34.54993646 9.43871599 36.90625 9.49609375 C39 10 39 10 40.34375 11.84765625 C41 14 41 14 40 17 C34.32919247 18.13416151 31.26825424 17.13577875 26 15 C26 14.34 26 13.68 26 13 C24.081875 13.0309375 24.081875 13.0309375 22.125 13.0625 C18.25 13.125 18.25 13.125 16 12 C14.41917836 11.84646696 12.83505372 11.72586705 11.25 11.625 C6.90541601 11.22318876 3.72004263 10.41802771 0 8 C-0.66 7.01 -1.32 6.02 -2 5 C-1.01 4.34 -0.02 3.68 1 3 C0.67 2.01 0.34 1.02 0 0 Z " fill="#29295F" transform="translate(232,363)"/>
<path d="M0 0 C-0.71027344 0.24234375 -1.42054688 0.4846875 -2.15234375 0.734375 C-3.07144531 1.06953125 -3.99054688 1.4046875 -4.9375 1.75 C-5.85402344 2.07484375 -6.77054688 2.3996875 -7.71484375 2.734375 C-10.18187339 3.76374509 -10.18187339 3.76374509 -10.69140625 6.078125 C-10.79324219 6.71234375 -10.89507812 7.3465625 -11 8 C-11.66 8.33 -12.32 8.66 -13 9 C-11.02 9 -9.04 9 -7 9 C-7 9.33 -7 9.66 -7 10 C-8.1859375 10.17015625 -9.371875 10.3403125 -10.59375 10.515625 C-22.65096904 12.2989555 -34.31234688 14.70420862 -46 18.1796875 C-47.258125 18.55351562 -48.51625 18.92734375 -49.8125 19.3125 C-50.93269531 19.65925781 -52.05289063 20.00601563 -53.20703125 20.36328125 C-56 21 -56 21 -59 20 C-44.80698864 12.65171291 -30.64164751 6.64686462 -15.3125 2.0625 C-13.7337207 1.5838147 -13.7337207 1.5838147 -12.12304688 1.09545898 C-11.12982422 0.80743408 -10.13660156 0.51940918 -9.11328125 0.22265625 C-8.22423096 -0.03765381 -7.33518066 -0.29796387 -6.41918945 -0.56616211 C-3.89119167 -1.01951281 -2.40589325 -0.82526718 0 0 Z " fill="#E3E3EC" transform="translate(164,115)"/>
<path d="M0 0 C4.03152777 1.43457649 7.22465487 3.40112814 10.75 5.8125 C17.47589998 10.27457875 24.5263528 14.03683213 31.6875 17.75 C32.73196289 18.29245361 33.77642578 18.83490723 34.85253906 19.39379883 C44.03879525 24.11222039 53.28655692 28.48306371 63 32 C64.66905395 32.66066719 66.3369416 33.32438252 68 34 C67.505 34.99 67.505 34.99 67 36 C66.34 35.67 65.68 35.34 65 35 C65 36.32 65 37.64 65 39 C45.82492896 33.09771933 27.69802834 20.75432685 11.375 9.4375 C10.36042725 8.73431641 9.34585449 8.03113281 8.30053711 7.30664062 C1.13091533 2.26183067 1.13091533 2.26183067 0 0 Z " fill="#E2E3EE" transform="translate(149,314)"/>
<path d="M0 0 C-7.32716031 4.84279502 -14.71489645 9.51095941 -22.375 13.8125 C-23.33599609 14.3528186 -23.33599609 14.3528186 -24.31640625 14.90405273 C-37.76002571 22.37600257 -37.76002571 22.37600257 -44 23 C-44 21.68 -44 20.36 -44 19 C-47.63 19.33 -51.26 19.66 -55 20 C-52.5401413 17.5401413 -50.99106046 17.38472348 -47.6171875 16.640625 C-41.25361975 15.12612245 -35.23298692 13.07528727 -29.125 10.75 C-28.08577393 10.3595752 -27.04654785 9.96915039 -25.97583008 9.56689453 C-18.88334116 6.85358269 -12.15258423 3.7929433 -5.51171875 0.1171875 C-3 -1 -3 -1 0 0 Z " fill="#D8D9E4" transform="translate(463,369)"/>
<path d="M0 0 C18.15 0 36.3 0 55 0 C51.33575154 1.83212423 50.28219051 2.24988266 46.47851562 2.24291992 C45.59079468 2.24599655 44.70307373 2.24907318 43.78845215 2.25224304 C42.83732544 2.24505753 41.88619873 2.23787201 40.90625 2.23046875 C39.92257446 2.23001053 38.93889893 2.22955231 37.92541504 2.2290802 C35.84756258 2.22606186 33.76971231 2.21818808 31.69189453 2.20581055 C28.51196268 2.18756862 25.33232245 2.18530086 22.15234375 2.18554688 C20.13280998 2.1806308 18.11327819 2.1748021 16.09375 2.16796875 C15.14262329 2.16685593 14.19149658 2.1657431 13.21154785 2.16459656 C12.3238269 2.15821671 11.43610596 2.15183685 10.52148438 2.14526367 C9.35377502 2.13954597 9.35377502 2.13954597 8.16247559 2.13371277 C6 2 6 2 2 1 C2.33 6.94 2.66 12.88 3 19 C21.15 19 39.3 19 58 19 C58 19.33 58 19.66 58 20 C38.86 20 19.72 20 0 20 C0 13.4 0 6.8 0 0 Z " fill="#232351" transform="translate(291,211)"/>
<path d="M0 0 C-0.33 1.65 -0.66 3.3 -1 5 C-4.39267194 6.01094544 -7.78959455 7.00680051 -11.1875 8 C-12.14720703 8.28617187 -13.10691406 8.57234375 -14.09570312 8.8671875 C-15.02705078 9.13789063 -15.95839844 9.40859375 -16.91796875 9.6875 C-18.19837036 10.06455078 -18.19837036 10.06455078 -19.50463867 10.44921875 C-22.08095545 11.01786865 -24.37047227 11.09883894 -27 11 C-26.38125 10.71125 -25.7625 10.4225 -25.125 10.125 C-22.86674235 9.06279958 -22.86674235 9.06279958 -21 7 C-21.33 6.34 -21.66 5.68 -22 5 C-25.02934491 4.34227572 -25.02934491 4.34227572 -28 4 C-28 3.67 -28 3.34 -28 3 C-23.89774215 2.3007667 -19.79296488 1.61762895 -15.6875 0.9375 C-13.93663086 0.63875977 -13.93663086 0.63875977 -12.15039062 0.33398438 C-10.47299805 0.05844727 -10.47299805 0.05844727 -8.76171875 -0.22265625 C-7.73006592 -0.39547119 -6.69841309 -0.56828613 -5.63549805 -0.74633789 C-3 -1 -3 -1 0 0 Z " fill="#F3F4F6" transform="translate(420,388)"/>
<path d="M0 0 C1.47313408 -0.0049926 1.47313408 -0.0049926 2.97602844 -0.01008606 C5.05278052 -0.01513034 7.12954063 -0.01749516 9.20629883 -0.01733398 C12.30890191 -0.0194934 15.41113283 -0.03760058 18.51367188 -0.05664062 C31.68366505 -0.09246823 44.59315032 0.66024145 57.67578125 2.16796875 C57.67578125 2.49796875 57.67578125 2.82796875 57.67578125 3.16796875 C49.39081521 3.19125997 41.10586312 3.20896865 32.82087231 3.21978092 C28.97277345 3.22497334 25.12469719 3.23200388 21.27661133 3.2434082 C17.55482579 3.25436771 13.83306182 3.26027293 10.11126137 3.26284599 C8.69968642 3.26467692 7.28811249 3.26825158 5.87654686 3.27369881 C-2.25183949 3.30378504 -10.24511713 3.09891169 -18.32421875 2.16796875 C-18.32421875 1.83796875 -18.32421875 1.50796875 -18.32421875 1.16796875 C-12.18022 0.27147523 -6.20466021 0.00749777 0 0 Z " fill="#4A4A6E" transform="translate(170.32421875,97.83203125)"/>
<path d="M0 0 C5.1202014 5.1202014 7.26426612 14.05706449 9 21 C9.66 21 10.32 21 11 21 C11.96189997 22.72718516 12.91936508 24.45684058 13.875 26.1875 C14.67550781 27.63189453 14.67550781 27.63189453 15.4921875 29.10546875 C16.8423678 31.69739518 17.97098329 34.26761098 19 37 C19.66 37 20.32 37 21 37 C21 37.66 21 38.32 21 39 C21.66 39 22.32 39 23 39 C24.38232443 40.62626404 25.71937515 42.2925002 27 44 C26.34 44.66 25.68 45.32 25 46 C14.30570748 33.24444929 4.48563742 19.91122059 -1 4 C-0.625 1.6875 -0.625 1.6875 0 0 Z " fill="#201F41" transform="translate(2,418)"/>
<path d="M0 0 C23.31721369 19.26204609 23.31721369 19.26204609 25 31 C24.01 31 23.02 31 22 31 C21.71125 30.195625 21.4225 29.39125 21.125 28.5625 C20.26737432 25.8673532 20.26737432 25.8673532 18 25 C18 24.01 18 23.02 18 22 C17.38125 21.814375 16.7625 21.62875 16.125 21.4375 C12.98965773 19.31653317 13.01409882 16.54934587 12 13 C10.01432266 11.50256112 10.01432266 11.50256112 8 11 C8 10.34 8 9.68 8 9 C7.401875 8.855625 6.80375 8.71125 6.1875 8.5625 C4.43849596 8.1127561 2.71322977 7.57107659 1 7 C0.67 4.69 0.34 2.38 0 0 Z " fill="#28264D" transform="translate(469,23)"/>
<path d="M0 0 C-8.54105568 5.57190171 -17.1361531 10.95117878 -26 16 C-26.4125 15.525625 -26.825 15.05125 -27.25 14.5625 C-29.182185 12.83733482 -30.48192275 12.43415125 -33 12 C-32.00742187 11.64808594 -31.01484375 11.29617188 -29.9921875 10.93359375 C-21.57642846 7.8921674 -13.66357623 4.48854362 -5.79296875 0.22265625 C-3 -1 -3 -1 0 0 Z " fill="#D8D8E6" transform="translate(463,369)"/>
<path d="M0 0 C1.46015291 0.28241641 2.91809793 0.57626614 4.375 0.875 C5.59316406 1.11863281 5.59316406 1.11863281 6.8359375 1.3671875 C9 2 9 2 11 4 C7.98968256 4.93423645 7.13349732 5.04449911 4 4 C4.33 4.99 4.66 5.98 5 7 C4.01 7.66 3.02 8.32 2 9 C2.33 9.66 2.66 10.32 3 11 C-2.6143991 9.43551329 -7.86810338 7.83604813 -13 5 C-13 4.67 -13 4.34 -13 4 C-12.22914063 3.96261719 -11.45828125 3.92523438 -10.6640625 3.88671875 C-9.15972656 3.78810547 -9.15972656 3.78810547 -7.625 3.6875 C-6.62726563 3.62949219 -5.62953125 3.57148438 -4.6015625 3.51171875 C-3.74304688 3.34285156 -2.88453125 3.17398437 -2 3 C-1.34 2.01 -0.68 1.02 0 0 Z " fill="#3A3966" transform="translate(229,360)"/>
<path d="M0 0 C0.66 0.33 1.32 0.66 2 1 C0.74615087 4.76154738 -1.14200302 6.27191198 -4 9 C-4.86625 9.886875 -5.7325 10.77375 -6.625 11.6875 C-9 14 -9 14 -12 16 C-13.2065625 17.3303125 -13.2065625 17.3303125 -14.4375 18.6875 C-15.283125 19.450625 -16.12875 20.21375 -17 21 C-19.16015625 20.64453125 -19.16015625 20.64453125 -21 20 C-14.81113732 12.47909734 -7.88217346 5.74402066 0 0 Z " fill="#36365F" transform="translate(90,122)"/>
<path d="M0 0 C6.51084156 -0.39862295 12.32767675 0.78146923 18.6875 2.140625 C24.35841287 3.31851198 30.09331694 4.11876548 35.8293457 4.90942383 C41.78356898 5.78356898 41.78356898 5.78356898 44 8 C37.89496415 8.24420143 32.19620325 7.49805932 26.1640625 6.578125 C18.14976498 5.41110991 10.0606551 4.76227523 2 4 C3.32 3.34 4.64 2.68 6 2 C3.03 1.505 3.03 1.505 0 1 C0 0.67 0 0.34 0 0 Z " fill="#A3A3C3" transform="translate(226,97)"/>
<path d="M0 0 C4.19087037 1.48232637 7.56686853 3.58816879 11.25 6.0625 C19.18807775 11.30587188 27.53994533 15.6675507 36 20 C36 21.32 36 22.64 36 24 C31.52529446 22.41413693 27.62262459 20.080478 23.625 17.5625 C22.93470703 17.12945557 22.24441406 16.69641113 21.53320312 16.25024414 C16.39558905 12.98323955 11.41363986 9.53161565 6.5 5.9375 C5.84725098 5.46062744 5.19450195 4.98375488 4.52197266 4.49243164 C2.99334177 3.35641012 1.49324348 2.18215109 0 1 C0 0.67 0 0.34 0 0 Z " fill="#D6D6E7" transform="translate(149,314)"/>
<path d="M0 0 C-0.71027344 0.24234375 -1.42054688 0.4846875 -2.15234375 0.734375 C-3.07144531 1.06953125 -3.99054688 1.4046875 -4.9375 1.75 C-5.85402344 2.07484375 -6.77054688 2.3996875 -7.71484375 2.734375 C-10.18187339 3.76374509 -10.18187339 3.76374509 -10.69140625 6.078125 C-10.79324219 6.71234375 -10.89507812 7.3465625 -11 8 C-11.99 8.495 -11.99 8.495 -13 9 C-11.02 9 -9.04 9 -7 9 C-7 9.33 -7 9.66 -7 10 C-11.40914783 11.10228696 -15.48382401 11.07654536 -20 11 C-20 10.34 -20 9.68 -20 9 C-20.99 9.33 -21.98 9.66 -23 10 C-23 9.34 -23 8.68 -23 8 C-22.34 8 -21.68 8 -21 8 C-20.90630127 7.37134033 -20.81260254 6.74268066 -20.71606445 6.0949707 C-20.47976318 5.40363037 -20.24346191 4.71229004 -20 4 C-17.34686943 2.8338217 -14.95094294 1.97325587 -12.1875 1.1875 C-11.46240234 0.95869141 -10.73730469 0.72988281 -9.99023438 0.49414062 C-6.2471092 -0.62571476 -3.72269989 -1.17132001 0 0 Z " fill="#E6E6ED" transform="translate(164,115)"/>
<path d="M0 0 C0.66 0 1.32 0 2 0 C1.59739606 6.10221259 -0.32181858 9.73862262 -3.8125 14.6875 C-4.25142578 15.33783203 -4.69035156 15.98816406 -5.14257812 16.65820312 C-7.50486227 20.10159205 -9.91206385 23.15679539 -13 26 C-13.75 23.8125 -13.75 23.8125 -14 21 C-12.25 18.1875 -12.25 18.1875 -10 16 C-9.01 16 -8.02 16 -7 16 C-6.7525 14.72125 -6.505 13.4425 -6.25 12.125 C-5.29503515 8.20826011 -5.29503515 8.20826011 -2.875 6.5 C-2.25625 6.335 -1.6375 6.17 -1 6 C-1.020625 5.195625 -1.04125 4.39125 -1.0625 3.5625 C-1 1 -1 1 0 0 Z " fill="#232148" transform="translate(496,435)"/>
<path d="M0 0 C0.66 0.33 1.32 0.66 2 1 C0.02 1.99 0.02 1.99 -2 3 C-2 3.99 -2 4.98 -2 6 C-2.969375 6.37125 -3.93875 6.7425 -4.9375 7.125 C-8.94865576 8.82077317 -12.35275442 11.17194898 -15.88671875 13.6953125 C-17.99825357 14.9989218 -19.53312365 15.74032881 -22 16 C-22.66 15.34 -23.32 14.68 -24 14 C-16.40781138 8.69623703 -8.67999338 3.37869449 0 0 Z " fill="#232246" transform="translate(72,1)"/>
<path d="M0 0 C0.33 1.65 0.66 3.3 1 5 C-6.94605012 7.35862583 -14.8301386 9.56933303 -23 11 C-18.92516107 7.38147898 -14.77004811 5.3406945 -9.8125 3.25 C-9.08869141 2.93417969 -8.36488281 2.61835937 -7.61914062 2.29296875 C-2.28376962 0 -2.28376962 0 0 0 Z " fill="#DBDCEB" transform="translate(128,125)"/>
<path d="M0 0 C4.40933262 0.55620466 7.17414731 2.18404632 10.8125 4.6875 C11.85535156 5.40292969 12.89820313 6.11835938 13.97265625 6.85546875 C17.70477033 9.49925021 21.38747473 12.19498038 25 15 C24.34 15.66 23.68 16.32 23 17 C22.071875 16.360625 21.14375 15.72125 20.1875 15.0625 C17.15780057 12.91377907 17.15780057 12.91377907 14 12 C14 11.01 14 10.02 14 9 C12.948125 9.12375 12.948125 9.12375 11.875 9.25 C8.00323092 8.91332443 5.98055586 7.42603384 3 5 C3 4.01 3 3.02 3 2 C2.01 1.67 1.02 1.34 0 1 C0 0.67 0 0.34 0 0 Z " fill="#2A2849" transform="translate(444,7)"/>
<path d="M0 0 C0.33 0 0.66 0 1 0 C1 19.14 1 38.28 1 58 C1.99 58 2.98 58 4 58 C4 58.99 4 59.98 4 61 C2.02 61.495 2.02 61.495 0 62 C0 41.54 0 21.08 0 0 Z " fill="#2E2E58" transform="translate(185,214)"/>
<path d="M0 0 C0.99 0 1.98 0 3 0 C3 0.66 3 1.32 3 2 C3.66 2.33 4.32 2.66 5 3 C-1.19582171 7.5899194 -7.39741568 12.01353399 -14 16 C-14.33 15.01 -14.66 14.02 -15 13 C-14.195625 12.7525 -13.39125 12.505 -12.5625 12.25 C-9.828919 11.27761141 -9.828919 11.27761141 -9.1875 8.875 C-9.125625 8.25625 -9.06375 7.6375 -9 7 C-8.34 7 -7.68 7 -7 7 C-7 6.34 -7 5.68 -7 5 C-5.02 4.67 -3.04 4.34 -1 4 C-0.67 2.68 -0.34 1.36 0 0 Z " fill="#28264C" transform="translate(465,472)"/>
<path d="M0 0 C-1.7408767 2.19626794 -2.71221956 2.93915209 -5.49291992 3.52709961 C-15.13103192 4.12036849 -24.67235588 3.90986583 -34.3125 3.5625 C-35.93943201 3.50911807 -37.56638526 3.45637964 -39.19335938 3.40429688 C-43.12918993 3.27692844 -47.06463251 3.14092546 -51 3 C-51 2.67 -51 2.34 -51 2 C-49.91058105 1.97494385 -48.82116211 1.9498877 -47.69873047 1.92407227 C-43.63953802 1.82958085 -39.58050012 1.72946363 -35.52148438 1.62768555 C-33.76794054 1.58449402 -32.01435892 1.54280845 -30.26074219 1.50268555 C-27.73360835 1.44459876 -25.20666196 1.38101701 -22.6796875 1.31640625 C-21.90132538 1.29969376 -21.12296326 1.28298126 -20.3210144 1.26576233 C-13.46107563 1.08094497 -6.87953664 -0.1186127 0 0 Z " fill="#575579" transform="translate(387,401)"/>
<path d="M0 0 C-6.97347871 5.56217945 -15.26568102 9.32032327 -24 11 C-24 10.01 -24 9.02 -24 8 C-19.27716957 5.85533304 -14.531627 3.76029364 -9.75 1.75 C-8.56664062 1.24726563 -8.56664062 1.24726563 -7.359375 0.734375 C-4.78829681 -0.06589437 -2.67681943 -0.13289174 0 0 Z " fill="#1F1D43" transform="translate(450,488)"/>
<path d="M0 0 C2.74874625 0.47121364 5.02022365 1.00937193 7.5625 2.1875 C9.95207765 3.27378896 9.95207765 3.27378896 12.0625 2.1875 C12.701875 1.795625 13.34125 1.40375 14 1 C15.875 0.125 15.875 0.125 18 0 C21.25 1.9375 21.25 1.9375 24 4 C23.34 4.66 22.68 5.32 22 6 C20.68 5.34 19.36 4.68 18 4 C17.01 4.66 16.02 5.32 15 6 C13.68 6 12.36 6 11 6 C11.33 6.66 11.66 7.32 12 8 C7.44328408 6.48109469 3.68276708 4.04597738 0 1 C0 0.67 0 0.34 0 0 Z " fill="#2C2D61" transform="translate(151,328)"/>
<path d="M0 0 C9.62088224 -0.16611595 19.15815204 0.35766951 28.75 1 C30.23695624 1.09670732 31.72393535 1.19306368 33.2109375 1.2890625 C36.80756362 1.52200752 40.40385951 1.75966071 44 2 C44 2.66 44 3.32 44 4 C41.72923158 4.02699725 39.45837179 4.04639453 37.1875 4.0625 C35.29064453 4.07990234 35.29064453 4.07990234 33.35546875 4.09765625 C30 4 30 4 27 3 C25.54236185 2.95497643 24.08281853 2.96125399 22.625 3 C18.44070376 3.03692026 14.30107372 2.89776157 10.125 2.625 C9.05507812 2.55539063 7.98515625 2.48578125 6.8828125 2.4140625 C4.1064678 2.01529212 2.43621416 1.30406419 0 0 Z " fill="#242356" transform="translate(204,100)"/>
<path d="M0 0 C0.33 0.66 0.66 1.32 1 2 C2.64363134 2.72159424 4.31050386 3.39351421 6 4 C6 4.66 6 5.32 6 6 C7.65 6.33 9.3 6.66 11 7 C11 7.66 11 8.32 11 9 C11.66 9 12.32 9 13 9 C13.33 10.98 13.66 12.96 14 15 C14.99 15.33 15.98 15.66 17 16 C16.67 17.32 16.34 18.64 16 20 C15.67 19.01 15.34 18.02 15 17 C14.01 16.67 13.02 16.34 12 16 C10.38671875 14.3984375 10.38671875 14.3984375 8.6875 12.375 C8.08164062 11.66085938 7.47578125 10.94671875 6.8515625 10.2109375 C5.93503906 9.11652344 5.93503906 9.11652344 5 8 C3.85546987 6.66554784 2.70974983 5.33211473 1.5625 4 C0.716875 3.01 -0.12875 2.02 -1 1 C-0.67 0.67 -0.34 0.34 0 0 Z " fill="#3B3B62" transform="translate(435,195)"/>
<path d="M0 0 C2.97922593 -0.02683987 5.95821295 -0.04676037 8.9375 -0.0625 C9.78763672 -0.07087891 10.63777344 -0.07925781 11.51367188 -0.08789062 C12.32255859 -0.09111328 13.13144531 -0.09433594 13.96484375 -0.09765625 C14.7137085 -0.10289307 15.46257324 -0.10812988 16.23413086 -0.11352539 C18 0 18 0 19 1 C21.18438945 1.18672529 23.37309801 1.32373468 25.5625 1.4375 C30.97611168 1.78034364 35.81426185 2.44427856 41 4 C41 4.66 41 5.32 41 6 C34.69366582 5.34084547 28.45020349 4.48485083 22.1875 3.5 C14.80552437 2.36172841 7.46186012 1.43982509 0 1 C0 0.67 0 0.34 0 0 Z " fill="#585776" transform="translate(232,110)"/>
<path d="M0 0 C6.52307692 0.49230769 6.52307692 0.49230769 8.9375 3.0625 C9.288125 3.701875 9.63875 4.34125 10 5 C8 7 8 7 6.125 7.1171875 C4.00428232 6.87548806 2.04475755 6.61949222 0 6 C-1.5 3.9375 -1.5 3.9375 -2 2 C-1.34 2 -0.68 2 0 2 C0 1.34 0 0.68 0 0 Z " fill="#F8F8FA" transform="translate(229,354)"/>
<path d="M0 0 C5.27315333 0.4452885 10.01770224 1.08373163 15 3 C13.375 5.0625 13.375 5.0625 11 7 C7.3014996 6.85205998 5.64194427 6.64194427 3 4 C1.68252676 3.30251417 0.35085807 2.63040043 -1 2 C-0.67 1.34 -0.34 0.68 0 0 Z " fill="#24235E" transform="translate(152,325)"/>
<path d="M0 0 C4.71437718 1.51271293 9.28958585 3.26772954 13.875 5.125 C14.90753906 5.54072266 14.90753906 5.54072266 15.9609375 5.96484375 C17.64126501 6.64164233 19.32072342 7.32059803 21 8 C19.140625 9.07421875 19.140625 9.07421875 17 10 C14.75 8.8125 14.75 8.8125 12 7 C6.7003468 4.36112435 6.7003468 4.36112435 1 4.8125 C0.34 5.204375 -0.32 5.59625 -1 6 C-0.67 4.02 -0.34 2.04 0 0 Z " fill="#2E2C5D" transform="translate(208,351)"/>
<path d="M0 0 C2.31 0.66 4.62 1.32 7 2 C6.67 3.65 6.34 5.3 6 7 C3.69 7 1.38 7 -1 7 C-1 6.34 -1 5.68 -1 5 C-2.2065625 4.814375 -2.2065625 4.814375 -3.4375 4.625 C-4.283125 4.41875 -5.12875 4.2125 -6 4 C-6.33 3.34 -6.66 2.68 -7 2 C-4.525 2.495 -4.525 2.495 -2 3 C-1.67 2.34 -1.34 1.68 -1 1 C-0.67 0.67 -0.34 0.34 0 0 Z " fill="#222458" transform="translate(168,331)"/>
<path d="M0 0 C3.72950549 0.50856893 6.72391991 1.12795423 10 3 C10.66 3.33 11.32 3.66 12 4 C11.01 5.485 11.01 5.485 10 7 C7.1796875 7.29296875 7.1796875 7.29296875 3.875 7.1875 C2.23144531 7.14689453 2.23144531 7.14689453 0.5546875 7.10546875 C-0.70988281 7.05326172 -0.70988281 7.05326172 -2 7 C-2.33 6.34 -2.66 5.68 -3 5 C-1.35 4.67 0.3 4.34 2 4 C2 3.34 2 2.68 2 2 C1.34 1.34 0.68 0.68 0 0 Z " fill="#22255C" transform="translate(217,357)"/>
<path d="M0 0 C-0.99 0.33 -1.98 0.66 -3 1 C-4.20882096 3.00016466 -4.20882096 3.00016466 -5 5 C-3.68 5.66 -2.36 6.32 -1 7 C-9.42857143 9.28571429 -9.42857143 9.28571429 -14 9 C-13.38125 8.71125 -12.7625 8.4225 -12.125 8.125 C-9.86674235 7.06279958 -9.86674235 7.06279958 -8 5 C-8.33 4.34 -8.66 3.68 -9 3 C-12.02934491 2.34227572 -12.02934491 2.34227572 -15 2 C-15 1.67 -15 1.34 -15 1 C-13.25215171 0.63536268 -11.50159498 0.2836922 -9.75 -0.0625 C-8.28820312 -0.35833984 -8.28820312 -0.35833984 -6.796875 -0.66015625 C-4.131881 -0.98397535 -2.51128277 -0.85503199 0 0 Z " fill="#E0E0EC" transform="translate(407,390)"/>
<path d="M0 0 C8.96101244 -0.21767642 17.2215548 -0.04404545 26 2 C26 2.33 26 2.66 26 3 C19.4 3 12.8 3 6 3 C6 2.34 6 1.68 6 1 C4.02 1 2.04 1 0 1 C0 0.67 0 0.34 0 0 Z " fill="#E9E8F5" transform="translate(211,97)"/>
<path d="M0 0 C1.27596315 3.82788944 0.62344752 5.36656983 -1 9 C-3.125 10.375 -3.125 10.375 -5 11 C-5 13.31 -5 15.62 -5 18 C-6.65 18.33 -8.3 18.66 -10 19 C-7.24087457 12.28071806 -3.85320287 6.15228059 0 0 Z " fill="#1A1938" transform="translate(14,50)"/>
<path d="M0 0 C1.1446875 0.3403125 1.1446875 0.3403125 2.3125 0.6875 C2.3125 2.9975 2.3125 5.3075 2.3125 7.6875 C-0.3275 7.3575 -2.9675 7.0275 -5.6875 6.6875 C-5.6875 2.6875 -5.6875 2.6875 -4.5 0.875 C-2.6875 -0.3125 -2.6875 -0.3125 0 0 Z " fill="#26235D" transform="translate(205.6875,350.3125)"/>
<path d="M0 0 C3.95969176 1.67229701 7.0161201 4.36304994 10.25 7.125 C10.80429688 7.59292969 11.35859375 8.06085938 11.9296875 8.54296875 C13.28947326 9.69175328 14.64515165 10.84539653 16 12 C14.02 12.99 14.02 12.99 12 14 C11.4225 13.195625 10.845 12.39125 10.25 11.5625 C8.01873107 9.02133261 7.25543229 8.34879632 4 8 C3.67 6.35 3.34 4.7 3 3 C2.01 2.67 1.02 2.34 0 2 C0 1.34 0 0.68 0 0 Z " fill="#35355E" transform="translate(87,308)"/>
<path d="M0 0 C1.32644531 0.28617187 1.32644531 0.28617187 2.6796875 0.578125 C3.56914062 0.75859375 4.45859375 0.9390625 5.375 1.125 C6.45394531 1.47304688 6.45394531 1.47304688 7.5546875 1.828125 C7.8846875 2.488125 8.2146875 3.148125 8.5546875 3.828125 C10.45002092 4.29335563 10.45002092 4.29335563 12.6171875 4.453125 C13.9165625 4.576875 15.2159375 4.700625 16.5546875 4.828125 C16.8846875 5.818125 17.2146875 6.808125 17.5546875 7.828125 C12.16076011 7.21147364 7.27073467 5.94889704 2.1171875 4.265625 C1.38564453 4.03166016 0.65410156 3.79769531 -0.09960938 3.55664062 C-1.88311429 2.98545278 -3.66444833 2.40749377 -5.4453125 1.828125 C-2.4453125 -0.171875 -2.4453125 -0.171875 0 0 Z " fill="#3C3D63" transform="translate(250.4453125,374.171875)"/>
<path d="M0 0 C0.66 1.32 1.32 2.64 2 4 C-3.29230769 7.07692308 -3.29230769 7.07692308 -6.875 6.6875 C-7.57625 6.460625 -8.2775 6.23375 -9 6 C-8 3 -8 3 -6.15234375 2.05078125 C-5.42144531 1.80714844 -4.69054687 1.56351562 -3.9375 1.3125 C-3.20402344 1.06113281 -2.47054688 0.80976563 -1.71484375 0.55078125 C-0.86599609 0.27814453 -0.86599609 0.27814453 0 0 Z " fill="#F3F2F9" transform="translate(434,381)"/>
<path d="M0 0 C-1.98 0.66 -3.96 1.32 -6 2 C-6 2.66 -6 3.32 -6 4 C-9.40351338 6.03219488 -12.3232927 6.36891039 -16.25 6.625 C-17.32765625 6.69976562 -18.4053125 6.77453125 -19.515625 6.8515625 C-20.33546875 6.90054688 -21.1553125 6.94953125 -22 7 C-19.52996366 4.52996366 -17.50834547 4.04825702 -14.1875 3 C-11.15446217 2.03545629 -8.21500899 1.09459151 -5.30078125 -0.1875 C-3 -1 -3 -1 0 0 Z " fill="#515074" transform="translate(132,104)"/>
<path d="M0 0 C0.33 1.32 0.66 2.64 1 4 C0.34 4 -0.32 4 -1 4 C-1 4.99 -1 5.98 -1 7 C-2.6796875 8.421875 -2.6796875 8.421875 -4.875 9.75 C-5.59429688 10.19859375 -6.31359375 10.6471875 -7.0546875 11.109375 C-7.69664063 11.40328125 -8.33859375 11.6971875 -9 12 C-9.66 11.67 -10.32 11.34 -11 11 C-9.92173635 9.72486237 -8.83714481 8.45507431 -7.75 7.1875 C-7.14671875 6.47980469 -6.5434375 5.77210937 -5.921875 5.04296875 C-4.07629602 3.08110329 -2.20054668 1.54330375 0 0 Z " fill="#232344" transform="translate(37,24)"/>
<path d="M0 0 C6.40593286 1.10690752 12.71363856 2.33945169 19 4 C18.01 4.33 17.02 4.66 16 5 C15.67 5.99 15.34 6.98 15 8 C12 7 12 7 10 4 C7.80545319 3.42006301 7.80545319 3.42006301 5.375 3.3125 C4.55773437 3.24675781 3.74046875 3.18101562 2.8984375 3.11328125 C2.27195312 3.07589844 1.64546875 3.03851563 1 3 C0.67 2.01 0.34 1.02 0 0 Z " fill="#3A3966" transform="translate(261,370)"/>
<path d="M0 0 C3.72433382 1.2125738 7.37802806 2.50859979 11 4 C10.67 4.66 10.34 5.32 10 6 C9.34 5.67 8.68 5.34 8 5 C8 6.32 8 7.64 8 9 C5.97954558 8.39816251 3.97888961 7.72693904 2 7 C1.67 6.34 1.34 5.68 1 5 C1.66 4.67 2.32 4.34 3 4 C2.2575 3.2884375 2.2575 3.2884375 1.5 2.5625 C0 1 0 1 0 0 Z " fill="#DFDEE9" transform="translate(206,344)"/>
<path d="M0 0 C0.66 1.32 1.32 2.64 2 4 C1.34 4 0.68 4 0 4 C0.33 4.66 0.66 5.32 1 6 C3.32156597 6.40729228 5.6568787 6.74438677 8 7 C8.33 8.65 8.66 10.3 9 12 C4.50202887 10.31326082 0.27113698 8.18326108 -4 6 C-3.01 5.67 -2.02 5.34 -1 5 C-0.67 3.35 -0.34 1.7 0 0 Z " fill="#42436A" transform="translate(191,345)"/>
<path d="M0 0 C3.54227101 0.11055553 7.0835436 0.24102309 10.625 0.375 C12.12353516 0.42140625 12.12353516 0.42140625 13.65234375 0.46875 C18.77732101 0.67239148 23.20268917 0.98611183 28 3 C28 3.33 28 3.66 28 4 C21.67131138 4.17743987 15.74233484 3.50712088 9.5 2.5 C8.5821875 2.35691406 7.664375 2.21382813 6.71875 2.06640625 C4.47825881 1.7163295 2.23879053 1.3607651 0 1 C0 0.67 0 0.34 0 0 Z " fill="#545575" transform="translate(298,389)"/>
<path d="M0 0 C0.33 0.99 0.66 1.98 1 3 C1.66 3.66 2.32 4.32 3 5 C2.01 6.485 2.01 6.485 1 8 C-1.64 7.34 -4.28 6.68 -7 6 C-7 5.01 -7 4.02 -7 3 C-2.77777778 0 -2.77777778 0 0 0 Z " fill="#22245E" transform="translate(182,337)"/>
<path d="M0 0 C1 2 1 2 -0.125 5.4375 C-1.71547174 8.97758225 -3.5302682 10.22065036 -7 12 C-7.66 12.99 -8.32 13.98 -9 15 C-9 10.22624739 -8.05320576 9.37086168 -5.0625 5.8125 C-4.33160156 4.93207031 -3.60070312 4.05164062 -2.84765625 3.14453125 C-1.92464027 2.07320827 -0.99992286 0.99992286 0 0 Z " fill="#21203E" transform="translate(25,36)"/>
<path d="M0 0 C0.33 0 0.66 0 1 0 C1.33910994 2.04071515 1.67102704 4.08262621 2 6.125 C2.185625 7.26195312 2.37125 8.39890625 2.5625 9.5703125 C2.96956049 12.76137602 3.07809902 15.78817791 3 19 C2.01 19.33 1.02 19.66 0 20 C0 13.4 0 6.8 0 0 Z " fill="#2E2E55" transform="translate(291,211)"/>
<path d="M0 0 C5.44693314 -0.09688221 10.63904667 -0.12862175 16 1 C15.67 1.99 15.34 2.98 15 4 C13.41705218 4.05437607 11.83355744 4.09296271 10.25 4.125 C9.36828125 4.14820312 8.4865625 4.17140625 7.578125 4.1953125 C4.85093574 3.98870725 3.28684592 3.47305841 1 2 C0.67 1.34 0.34 0.68 0 0 Z " fill="#DCDBEB" transform="translate(202,95)"/>
<path d="M0 0 C4.8274799 1.41292095 8.7162359 3.42974154 13 6 C12.67 6.66 12.34 7.32 12 8 C10.56068883 7.54738642 9.12361001 7.08767021 7.6875 6.625 C6.88699219 6.36976563 6.08648437 6.11453125 5.26171875 5.8515625 C3 5 3 5 0 3 C0 2.01 0 1.02 0 0 Z " fill="#31325D" transform="translate(153,354)"/>
<path d="M0 0 C-0.33 0.66 -0.66 1.32 -1 2 C-4.63 2 -8.26 2 -12 2 C-12 2.66 -12 3.32 -12 4 C-13.58226965 4.19627391 -15.16589271 4.38165538 -16.75 4.5625 C-17.63171875 4.66691406 -18.5134375 4.77132812 -19.421875 4.87890625 C-21.88432451 4.99456676 -23.66538064 4.73638695 -26 4 C-17.26911184 1.68631464 -9.0891305 -0.22722826 0 0 Z " fill="#49486A" transform="translate(152,126)"/>
<path d="M0 0 C-5.45217631 5.2250023 -13.93340453 4.14722074 -21 4 C-21 3.67 -21 3.34 -21 3 C-13.90215087 1.18225815 -7.34918342 -0.43230491 0 0 Z " fill="#3F3F69" transform="translate(414,396)"/>
<path d="M0 0 C3.27346607 3.09652196 5.97509956 5.95019912 8 10 C8 10.99 8 11.98 8 13 C7.01 13 6.02 13 5 13 C4.71125 12.195625 4.4225 11.39125 4.125 10.5625 C3.26737432 7.8673532 3.26737432 7.8673532 1 7 C0.59270772 4.67843403 0.25561323 2.3431213 0 0 Z " fill="#252346" transform="translate(486,41)"/>
<path d="M0 0 C-5.16216577 3.75430238 -8.56014376 5.67081836 -15 5 C-12.91806813 2.91806813 -11.28020285 2.03424616 -8.625 0.8125 C-7.85414063 0.44769531 -7.08328125 0.08289063 -6.2890625 -0.29296875 C-3.72666635 -1.08442558 -2.48946307 -0.89234179 0 0 Z " fill="#3D3D66" transform="translate(210,297)"/>
<path d="M0 0 C3.99824088 3.66505414 6.60168569 7.11112852 9 12 C8.67 12.66 8.34 13.32 8 14 C6.5 12.625 6.5 12.625 5 11 C5 10.34 5 9.68 5 9 C3.03852126 7.61061923 1.03833424 6.2739589 -1 5 C-0.67 3.35 -0.34 1.7 0 0 Z " fill="#444467" transform="translate(439,242)"/>
<path d="M0 0 C0.66 0.33 1.32 0.66 2 1 C2 3 2 3 0.25 5 C-1.8453073 6.86249538 -3.36104456 8.09285907 -6 9 C-7.32 8.67 -8.64 8.34 -10 8 C-6.7 5.36 -3.4 2.72 0 0 Z " fill="#E1E2EE" transform="translate(69,118)"/>
<path d="M0 0 C0.33 0 0.66 0 1 0 C1.33 2.31 1.66 4.62 2 7 C-2.455 8.485 -2.455 8.485 -7 10 C-5.93197254 5.72789016 -5.56121574 5.15831257 -2 3 C-1.34 3 -0.68 3 0 3 C0 2.01 0 1.02 0 0 Z " fill="#2D2D58" transform="translate(216,255)"/>
<path d="M0 0 C-3.44919626 2.29946417 -6.1381022 2.80769035 -10.1875 3.625 C-11.45980469 3.88539062 -12.73210937 4.14578125 -14.04296875 4.4140625 C-15.50669922 4.70410156 -15.50669922 4.70410156 -17 5 C-17 4.01 -17 3.02 -17 2 C-15.02 2 -13.04 2 -11 2 C-11 1.34 -11 0.68 -11 0 C-3.375 -1.125 -3.375 -1.125 0 0 Z " fill="#37385E" transform="translate(120,98)"/>
<path d="M0 0 C4.71289163 -0.24804693 8.87838805 0.51095108 13.453125 1.48828125 C16.95491616 2.19186199 20.45118746 2.6056875 24 3 C24 3.33 24 3.66 24 4 C16.26082036 4.31445877 8.54642291 3.84392234 1 2 C0.67 1.34 0.34 0.68 0 0 Z " fill="#262854" transform="translate(288,364)"/>
<path d="M0 0 C0.33 0 0.66 0 1 0 C1.06058594 0.60328125 1.12117188 1.2065625 1.18359375 1.828125 C1.26738281 2.62734375 1.35117187 3.4265625 1.4375 4.25 C1.51871094 5.03890625 1.59992188 5.8278125 1.68359375 6.640625 C1.94850725 8.9646195 1.94850725 8.9646195 2.5234375 11.046875 C3.02175491 13.08915948 3.16699655 14.90044653 3.1875 17 C3.20167969 17.66 3.21585937 18.32 3.23046875 19 C2.96033125 21.34424404 2.15309605 22.95815403 1 25 C0.31728707 16.64895793 -0.15392039 8.38011029 0 0 Z " fill="#282854" transform="translate(482,271)"/>
<path d="M0 0 C0.66 0.33 1.32 0.66 2 1 C0.76075855 5.95696581 -0.78577758 8.11658466 -5 11 C-5.33 10.01 -5.66 9.02 -6 8 C-4.78515625 5.95703125 -4.78515625 5.95703125 -3.0625 3.8125 C-2.49660156 3.09707031 -1.93070312 2.38164062 -1.34765625 1.64453125 C-0.90292969 1.10183594 -0.45820312 0.55914062 0 0 Z " fill="#3A395F" transform="translate(68,143)"/>
<path d="M0 0 C0 4.06121272 -1.52822053 5.18116938 -4.1875 8.1875 C-4.96480469 9.08855469 -5.74210937 9.98960937 -6.54296875 10.91796875 C-9 13 -9 13 -11.80078125 13.30078125 C-12.52652344 13.20152344 -13.25226563 13.10226562 -14 13 C-12.71034824 11.62437146 -11.37310707 10.29233607 -10 9 C-9.34 9 -8.68 9 -8 9 C-8 8.34 -8 7.68 -8 7 C-6.25 5.2734375 -6.25 5.2734375 -4 3.375 C-3.2575 2.74335938 -2.515 2.11171875 -1.75 1.4609375 C-1.1725 0.97882813 -0.595 0.49671875 0 0 Z " fill="#D6D6E5" transform="translate(438,340)"/>
<path d="M0 0 C1.03115279 3.26913624 0.9638984 5.86041348 0.5625 9.25 C0.46066406 10.14203125 0.35882813 11.0340625 0.25390625 11.953125 C0.17011719 12.62859375 0.08632813 13.3040625 0 14 C-1.65 14.66 -3.3 15.32 -5 16 C-3.41078475 10.63904723 -1.81027062 5.29156027 0 0 Z " fill="#504F73" transform="translate(480,310)"/>
<path d="M0 0 C3.28788824 3.11016455 5.83735988 6.01618925 8 10 C6.35 10.33 4.7 10.66 3 11 C2.87625 10.360625 2.7525 9.72125 2.625 9.0625 C2.41875 8.381875 2.2125 7.70125 2 7 C1.34 6.67 0.68 6.34 0 6 C0 4.02 0 2.04 0 0 Z " fill="#363662" transform="translate(429,229)"/>
<path d="M0 0 C0.66 0 1.32 0 2 0 C2.66 5.61 3.32 11.22 4 17 C2 16 2 16 0.875 13 C-0.27521462 8.67770912 -0.18124209 4.44043127 0 0 Z " fill="#4D4E72" transform="translate(24,200)"/>
<path d="M0 0 C-4.41345565 2.94230377 -7.53080168 4.14218048 -12.875 3.625 C-13.90625 3.41875 -14.9375 3.2125 -16 3 C-13.06473313 1.04315542 -11.38453435 0.48235576 -8 -0.1875 C-7.13375 -0.36667969 -6.2675 -0.54585938 -5.375 -0.73046875 C-3 -1 -3 -1 0 0 Z " fill="#34315F" transform="translate(426,393)"/>
<path d="M0 0 C1.32 0 2.64 0 4 0 C4 0.66 4 1.32 4 2 C5.65 2 7.3 2 9 2 C8.67 2.99 8.34 3.98 8 5 C5.36 5 2.72 5 0 5 C0 3.35 0 1.7 0 0 Z " fill="#F3F4F7" transform="translate(214,349)"/>
<path d="M0 0 C0.66 0.66 1.32 1.32 2 2 C2.66 2.33 3.32 2.66 4 3 C6 4 6 4 8 6 C9.31747324 6.69748583 10.64914193 7.36959957 12 8 C11.67 8.66 11.34 9.32 11 10 C6.33138019 8.39516194 1.90741833 6.02509806 -2 3 C-2 2.34 -2 1.68 -2 1 C-1.34 0.67 -0.68 0.34 0 0 Z " fill="#3A3B64" transform="translate(157,315)"/>
<path d="M0 0 C6.57142857 5.14285714 6.57142857 5.14285714 8 9 C5 9 5 9 2 8 C0.3125 4.4375 0.3125 4.4375 -1 1 C-0.67 0.67 -0.34 0.34 0 0 Z " fill="#393860" transform="translate(57,277)"/>
<path d="M0 0 C3.66172475 0.62678171 6.8818995 1.64451846 10.3125 3.0625 C11.19550781 3.42472656 12.07851562 3.78695313 12.98828125 4.16015625 C13.65214844 4.43730469 14.31601563 4.71445312 15 5 C13.68 5.33 12.36 5.66 11 6 C11.33 6.66 11.66 7.32 12 8 C7.44328408 6.48109469 3.68276708 4.04597738 0 1 C0 0.67 0 0.34 0 0 Z " fill="#424469" transform="translate(151,328)"/>
<path d="M0 0 C4.17189634 1.48609294 7.62853826 3.55302175 11.3125 6 C12.38113281 6.70125 13.44976562 7.4025 14.55078125 8.125 C15.76314453 9.053125 15.76314453 9.053125 17 10 C17 10.66 17 11.32 17 12 C12.66498025 10.52818439 9.28143997 8.2017333 5.6875 5.4375 C4.86282227 4.8197168 4.86282227 4.8197168 4.02148438 4.18945312 C2.65866955 3.1550682 1.32624296 2.08087744 0 1 C0 0.67 0 0.34 0 0 Z " fill="#9A9BC3" transform="translate(149,314)"/>
<path d="M0 0 C0.66 0 1.32 0 2 0 C2.05398987 2.27057377 2.09278742 4.54151288 2.125 6.8125 C2.14820313 8.07707031 2.17140625 9.34164063 2.1953125 10.64453125 C2 14 2 14 0 17 C-0.89316269 11.06390334 -0.97040422 5.93024803 0 0 Z " fill="#3F4065" transform="translate(456,282)"/>
<path d="M0 0 C0.66 0.33 1.32 0.66 2 1 C-0.31 4.63 -2.62 8.26 -5 12 C-5.66 10.68 -6.32 9.36 -7 8 C-6.0409375 7.1028125 -6.0409375 7.1028125 -5.0625 6.1875 C-2.79689611 4.09189663 -2.79689611 4.09189663 -2 1 C-1.34 0.67 -0.68 0.34 0 0 Z " fill="#E6E5F2" transform="translate(64,145)"/>
<path d="M0 0 C5.75 0.875 5.75 0.875 8 2 C8 1.34 8 0.68 8 0 C8.66 0 9.32 0 10 0 C10.33 1.98 10.66 3.96 11 6 C6.95743617 4.77782954 3.50711041 3.37245704 0 1 C0 0.67 0 0.34 0 0 Z " fill="#DBDCE6" transform="translate(317,146)"/>
<path d="M0 0 C0.66 0.66 1.32 1.32 2 2 C-1.96 4.64 -5.92 7.28 -10 10 C-10.33 9.01 -10.66 8.02 -11 7 C-10.01 7 -9.02 7 -8 7 C-8 6.34 -8 5.68 -8 5 C-6.09989102 2.76058584 -4.60719003 1.25001942 -1.875 0.125 C-1.25625 0.08375 -0.6375 0.0425 0 0 Z " fill="#35385E" transform="translate(72,114)"/>
<path d="M0 0 C3.7910119 1.44950455 7.3874638 3.15172566 11 5 C10.34 5.66 9.68 6.32 9 7 C5.375 6.625 5.375 6.625 2 6 C1.34 4.02 0.68 2.04 0 0 Z " fill="#29284B" transform="translate(432,0)"/>
<path d="M0 0 C5.75 0.875 5.75 0.875 8 2 C8.625 5.0625 8.625 5.0625 9 8 C4.7257442 6.4169423 2.73468206 3.49431596 0 0 Z " fill="#1B193B" transform="translate(31,467)"/>
<path d="M0 0 C1.62723299 0.45034123 3.25173664 0.91055354 4.875 1.375 C5.77992188 1.63023437 6.68484375 1.88546875 7.6171875 2.1484375 C10 3 10 3 12 5 C9.31143576 6.00821159 7.58296785 6.22736824 4.88671875 5.17578125 C2.89205069 4.16604698 0.9353228 3.11893353 -1 2 C-0.67 1.34 -0.34 0.68 0 0 Z " fill="#3C3B61" transform="translate(294,138)"/>
<path d="M0 0 C1.93816735 0.1141866 3.87555099 0.24173423 5.8125 0.375 C6.89144531 0.44460937 7.97039062 0.51421875 9.08203125 0.5859375 C12 1 12 1 15 3 C9.53891111 4.4002792 5.30723432 3.42705634 0 2 C0 1.34 0 0.68 0 0 Z " fill="#383B63" transform="translate(278,116)"/>
<path d="M0 0 C2.70108504 0.090916 5.36930311 0.23740766 8.0625 0.4375 C9.20041992 0.51581055 9.20041992 0.51581055 10.36132812 0.59570312 C12.24121722 0.72575835 14.12065685 0.86228038 16 1 C16 1.66 16 2.32 16 3 C13.72942623 3.05398987 11.45848712 3.09278742 9.1875 3.125 C7.29064453 3.15980469 7.29064453 3.15980469 5.35546875 3.1953125 C2 3 2 3 -1 1 C-0.67 0.67 -0.34 0.34 0 0 Z " fill="#312F5A" transform="translate(232,101)"/>
<path d="M0 0 C4.72065967 1.54269924 9.41664092 3.07794619 14 5 C13.34 5.66 12.68 6.32 12 7 C9.99538701 6.34733531 7.99620166 5.67795528 6 5 C4.6078125 4.5359375 4.6078125 4.5359375 3.1875 4.0625 C2.465625 3.711875 1.74375 3.36125 1 3 C0.67 2.01 0.34 1.02 0 0 Z " fill="#30305A" transform="translate(179,367)"/>
<path d="M0 0 C0.66 0.33 1.32 0.66 2 1 C0 4 0 4 -3 5 C-4.69882448 7.49759982 -4.69882448 7.49759982 -6 10 C-6.66 9.34 -7.32 8.68 -8 8 C-8.66 7.67 -9.32 7.34 -10 7 C-9.36191406 6.57847656 -8.72382813 6.15695312 -8.06640625 5.72265625 C-7.24011719 5.17480469 -6.41382813 4.62695312 -5.5625 4.0625 C-4.73878906 3.51722656 -3.91507812 2.97195313 -3.06640625 2.41015625 C-1.10014075 1.16197019 -1.10014075 1.16197019 0 0 Z M-9 10 C-7 11 -7 11 -7 11 Z " fill="#47466F" transform="translate(454,351)"/>
<path d="M0 0 C0 0.66 0 1.32 0 2 C1.32 2.33 2.64 2.66 4 3 C2.06524329 3.53093324 0.12706845 4.04942317 -1.8125 4.5625 C-3.43091797 4.99755859 -3.43091797 4.99755859 -5.08203125 5.44140625 C-8 6 -8 6 -11 5 C-9.54462432 4.16151196 -8.08559627 3.32936066 -6.625 2.5 C-5.81289062 2.0359375 -5.00078125 1.571875 -4.1640625 1.09375 C-2 0 -2 0 0 0 Z " fill="#B8BBD5" transform="translate(116,130)"/>
<path d="M0 0 C0.66 0.99 1.32 1.98 2 3 C-2.455 6.96 -2.455 6.96 -7 11 C-7.33 10.01 -7.66 9.02 -8 8 C-7.34 7.01 -6.68 6.02 -6 5 C-5.34 5 -4.68 5 -4 5 C-3.67 4.34 -3.34 3.68 -3 3 C-2.34 3.33 -1.68 3.66 -1 4 C-0.67 2.68 -0.34 1.36 0 0 Z " fill="#E8EAF4" transform="translate(84,123)"/>
<path d="M0 0 C5.4185766 -0.22577402 9.77487721 0.53329887 15 2 C15 2.66 15 3.32 15 4 C9.9697924 3.47462276 4.98114761 2.89405214 0 2 C0 1.34 0 0.68 0 0 Z " fill="#434368" transform="translate(258,112)"/>
<path d="M0 0 C2.29199177 0.14063135 4.58359186 0.28765943 6.875 0.4375 C8.15117187 0.51871094 9.42734375 0.59992188 10.7421875 0.68359375 C14 1 14 1 16 2 C16 2.66 16 3.32 16 4 C16.99 4.33 17.98 4.66 19 5 C12.42465139 4.37968409 6.33307408 2.85102717 0 1 C0 0.67 0 0.34 0 0 Z " fill="#CCCDDE" transform="translate(242,388)"/>
<path d="M0 0 C2.64 0.33 5.28 0.66 8 1 C8 1.66 8 2.32 8 3 C10.31 3.33 12.62 3.66 15 4 C15 4.99 15 5.98 15 7 C9.80355921 5.40109514 4.93387858 3.25861997 0 1 C0 0.67 0 0.34 0 0 Z " fill="#4E4C6E" transform="translate(200,357)"/>
<path d="M0 0 C0.33 0.66 0.66 1.32 1 2 C3.33157492 2.34541851 5.66508361 2.67794257 8 3 C8.99 3.66 9.98 4.32 11 5 C5.32723489 5.29341888 2.00932754 5.00559652 -3 2 C-2.01 1.34 -1.02 0.68 0 0 Z " fill="#3B3961" transform="translate(245,354)"/>
<path d="M0 0 C1.32 0 2.64 0 4 0 C4 0.66 4 1.32 4 2 C4.99 1.67 5.98 1.34 7 1 C9.125 1.6875 9.125 1.6875 11 3 C11.75 5.125 11.75 5.125 12 7 C7.39104317 5.68315519 3.85859765 3.84801255 0 1 C0 0.67 0 0.34 0 0 Z " fill="#414167" transform="translate(163,336)"/>
<path d="M0 0 C3.04386724 -0.08226668 5.07175348 0.02391783 8 1 C8 1.99 8 2.98 8 4 C9.65 4.33 11.3 4.66 13 5 C13 5.66 13 6.32 13 7 C8.1725201 5.58707905 4.2837641 3.57025846 0 1 C0 0.67 0 0.34 0 0 Z " fill="#CECEDE" transform="translate(329,152)"/>
<path d="M0 0 C0.77772405 2.33317216 1.42415568 4.61435923 2 7 C1.401875 7.268125 0.80375 7.53625 0.1875 7.8125 C-1.98316883 8.99086308 -3.30817212 10.23060981 -5 12 C-4.54738642 10.56068883 -4.08767021 9.12361001 -3.625 7.6875 C-3.24214844 6.48673828 -3.24214844 6.48673828 -2.8515625 5.26171875 C-2 3 -2 3 0 0 Z " fill="#D7D8E1" transform="translate(37,150)"/>
<path d="M0 0 C1.60568666 0.28317926 3.20952047 0.57687791 4.8125 0.875 C6.15248047 1.11863281 6.15248047 1.11863281 7.51953125 1.3671875 C10 2 10 2 13 4 C4.8645605 5.44282367 4.8645605 5.44282367 1.4375 3.6875 C0 2 0 2 0 0 Z " fill="#E1E1EB" transform="translate(313,128)"/>
<path d="M0 0 C-3.96 1.98 -7.92 3.96 -12 6 C-11 2 -11 2 -8 0 C-4.66657937 -0.91669067 -3.34350146 -1.11450049 0 0 Z " fill="#35365F" transform="translate(118,129)"/>
<path d="M0 0 C2.875 0.1875 2.875 0.1875 6 1 C7.375 3.5625 7.375 3.5625 8 6 C8.66 6 9.32 6 10 6 C9.67 6.66 9.34 7.32 9 8 C7.49712782 6.85793642 5.99776716 5.71125043 4.5 4.5625 C3.6646875 3.92441406 2.829375 3.28632813 1.96875 2.62890625 C1.3190625 2.09136719 0.669375 1.55382812 0 1 C0 0.67 0 0.34 0 0 Z " fill="#1C1A3B" transform="translate(40,475)"/>
<path d="M0 0 C-3.63 2.31 -7.26 4.62 -11 7 C-11 6.34 -11 5.68 -11 5 C-11.66 4.67 -12.32 4.34 -13 4 C-11.40233897 3.13372601 -9.79660056 2.28233535 -8.1875 1.4375 C-7.29417969 0.96183594 -6.40085937 0.48617188 -5.48046875 -0.00390625 C-3 -1 -3 -1 0 0 Z " fill="#A2A4CA" transform="translate(463,369)"/>
<path d="M0 0 C0.66 0.33 1.32 0.66 2 1 C1.39301257 5.12751449 -0.03810791 8.3321148 -2 12 C-2.33 12 -2.66 12 -3 12 C-2.88648483 10.18674449 -2.75887039 8.37436643 -2.625 6.5625 C-2.55539062 5.55316406 -2.48578125 4.54382813 -2.4140625 3.50390625 C-2.27742188 2.67761719 -2.14078125 1.85132813 -2 1 C-1.34 0.67 -0.68 0.34 0 0 Z " fill="#EBEBF5" transform="translate(476,316)"/>
<path d="M0 0 C3.59905908 0.55550695 4.99909799 1.74887248 7.25 4.5625 C8.03117187 5.52349609 8.03117187 5.52349609 8.828125 6.50390625 C9.21484375 6.99761719 9.6015625 7.49132812 10 8 C8.35 7.67 6.7 7.34 5 7 C4.67 5.68 4.34 4.36 4 3 C3.34 3 2.68 3 2 3 C1.67 3.66 1.34 4.32 1 5 C0.67 3.35 0.34 1.7 0 0 Z " fill="#434468" transform="translate(408,209)"/>
<path d="M0 0 C0.99 0.66 1.98 1.32 3 2 C1.44499019 5.81684226 -1.03595495 8.19195732 -4 11 C-4.66 10.67 -5.32 10.34 -6 10 C-4.02 6.7 -2.04 3.4 0 0 Z " fill="#4B4971" transform="translate(474,326)"/>
<path d="M0 0 C2.31 0.66 4.62 1.32 7 2 C7 2.66 7 3.32 7 4 C7.66 4 8.32 4 9 4 C9 4.66 9 5.32 9 6 C9.99 6.33 10.98 6.66 12 7 C7.65432161 7 6.99459211 6.61611416 3.75 4.0625 C3.04359375 3.51722656 2.3371875 2.97195312 1.609375 2.41015625 C1.07828125 1.94480469 0.5471875 1.47945312 0 1 C0 0.67 0 0.34 0 0 Z " fill="#414367" transform="translate(400,169)"/>
<path d="M0 0 C3.73487777 0.4979837 5.81237635 0.87491756 9 3 C9 3.99 9 4.98 9 6 C5.59687262 4.94124926 2.98646769 3.99097846 0 2 C0 1.34 0 0.68 0 0 Z " fill="#3E3E64" transform="translate(375,153)"/>
<path d="M0 0 C1.98 0 3.96 0 6 0 C2.53258866 2.95749791 -0.86873527 5.07848152 -5 7 C-5 6.01 -5 5.02 -5 4 C-3.35 3.34 -1.7 2.68 0 2 C0 1.34 0 0.68 0 0 Z " fill="#201F3B" transform="translate(455,481)"/>
<path d="M0 0 C0.66 0 1.32 0 2 0 C2 0.66 2 1.32 2 2 C2.66 2 3.32 2 4 2 C4 2.66 4 3.32 4 4 C4.66 4 5.32 4 6 4 C7.38232443 5.62626404 8.71937515 7.2925002 10 9 C9.34 9.66 8.68 10.32 8 11 C6.66375099 9.35653302 5.33107149 7.71016314 4 6.0625 C3.2575 5.14597656 2.515 4.22945313 1.75 3.28515625 C0 1 0 1 0 0 Z " fill="#171532" transform="translate(19,453)"/>
<path d="M0 0 C0.99 0 1.98 0 3 0 C6.22265625 5.17578125 6.22265625 5.17578125 7 7 C6.67 7.99 6.34 8.98 6 10 C5.01 9.34 4.02 8.68 3 8 C2.8125 5.375 2.8125 5.375 3 3 C2.01 2.67 1.02 2.34 0 2 C0 1.34 0 0.68 0 0 Z " fill="#201D49" transform="translate(25,457)"/>
<path d="M0 0 C0 0.66 0 1.32 0 2 C-1.95927063 3.7143618 -3.95880212 5.38405168 -6 7 C-7.32 6.34 -8.64 5.68 -10 5 C-8.71186658 4.16121545 -7.41936744 3.32913217 -6.125 2.5 C-5.40570313 2.0359375 -4.68640625 1.571875 -3.9453125 1.09375 C-2 0 -2 0 0 0 Z " fill="#D5D6E2" transform="translate(81,112)"/>
<path d="M0 0 C1.36125 0.37125 1.36125 0.37125 2.75 0.75 C-0.37432397 3.27349243 -3.63060496 5.02256146 -7.25 6.75 C-7.25 3.75 -7.25 3.75 -5.625 1.5 C-3.25 -0.25 -3.25 -0.25 0 0 Z " fill="#252452" transform="translate(77.25,0.25)"/>
<path d="M0 0 C-0.33 1.32 -0.66 2.64 -1 4 C-2.32 4 -3.64 4 -5 4 C-5 4.99 -5 5.98 -5 7 C-6.32 6.67 -7.64 6.34 -9 6 C-6.65405099 2.48107648 -4.44674901 0 0 0 Z " fill="#272454" transform="translate(455,481)"/>
<path d="M0 0 C1.09570312 0.19464844 2.19140625 0.38929688 3.3203125 0.58984375 C4.16335938 0.74582031 5.00640625 0.90179688 5.875 1.0625 C5.545 1.7225 5.215 2.3825 4.875 3.0625 C3.08259337 2.94860125 1.29105165 2.82102313 -0.5 2.6875 C-1.99660156 2.58308594 -1.99660156 2.58308594 -3.5234375 2.4765625 C-6.125 2.0625 -6.125 2.0625 -8.125 0.0625 C-5.2144446 -1.3927777 -3.16650948 -0.57266661 0 0 Z " fill="#32305C" transform="translate(260.125,392.9375)"/>
<path d="M0 0 C-2.52956528 3.0916909 -5.22454612 3.90931332 -9 5 C-8.875 3.125 -8.875 3.125 -8 1 C-2.71910112 -1.35955056 -2.71910112 -1.35955056 0 0 Z " fill="#393960" transform="translate(448,359)"/>
<path d="M0 0 C2.97 0.495 2.97 0.495 6 1 C6 1.66 6 2.32 6 3 C6.66 3 7.32 3 8 3 C7.67 3.99 7.34 4.98 7 6 C4.50638429 4.79618552 2.31856917 3.54571278 0 2 C0 1.34 0 0.68 0 0 Z " fill="#3C3B62" transform="translate(136,316)"/>
<path d="M0 0 C2.31 0.33 4.62 0.66 7 1 C7 2.98 7 4.96 7 7 C5.83040013 6.02433888 4.66438823 5.044375 3.5 4.0625 C2.8503125 3.51722656 2.200625 2.97195313 1.53125 2.41015625 C1.0259375 1.94480469 0.520625 1.47945313 0 1 C0 0.67 0 0.34 0 0 Z " fill="#35335E" transform="translate(113,297)"/>
<path d="M0 0 C-0.66 0 -1.32 0 -2 0 C-2.33 0.99 -2.66 1.98 -3 3 C-4.65 2.67 -6.3 2.34 -8 2 C-8 2.66 -8 3.32 -8 4 C-9.32 3.67 -10.64 3.34 -12 3 C-10.75823305 2.29773859 -9.50614401 1.61370891 -8.25 0.9375 C-7.20585937 0.36322266 -7.20585937 0.36322266 -6.140625 -0.22265625 C-3.63859372 -1.1312406 -2.4667645 -0.88336837 0 0 Z M-7 4 C-5 5 -5 5 -5 5 Z " fill="#4A4870" transform="translate(248,279)"/>
<path d="M0 0 C2 1 2 1 2.6328125 2.84765625 C2.79523437 3.57855469 2.95765625 4.30945313 3.125 5.0625 C3.29257812 5.79597656 3.46015625 6.52945313 3.6328125 7.28515625 C3.75398438 7.85105469 3.87515625 8.41695312 4 9 C3.01 9.495 3.01 9.495 2 10 C1.34 9.67 0.68 9.34 0 9 C0 6.03 0 3.06 0 0 Z " fill="#3A395F" transform="translate(28,223)"/>
<path d="M0 0 C4.43090471 1.20842856 6.98112756 2.51668565 10 6 C9.67 6.99 9.34 7.98 9 9 C7.49704815 7.69088122 5.99770689 6.37761608 4.5 5.0625 C3.6646875 4.33160156 2.829375 3.60070312 1.96875 2.84765625 C1.3190625 2.23792969 0.669375 1.62820312 0 1 C0 0.67 0 0.34 0 0 Z " fill="#E3E2EE" transform="translate(408,207)"/>
<path d="M0 0 C-2.3797234 2.3797234 -3.74424795 2.58749232 -7 3.25 C-8.3303125 3.53617188 -8.3303125 3.53617188 -9.6875 3.828125 C-10.450625 3.88484375 -11.21375 3.9415625 -12 4 C-12.66 3.34 -13.32 2.68 -14 2 C-9.126739 0.4087311 -5.19209404 -0.21192221 0 0 Z " fill="#36385D" transform="translate(122,133)"/>
<path d="M0 0 C0.66 0.33 1.32 0.66 2 1 C1.34 2.32 0.68 3.64 0 5 C-2.31 5 -4.62 5 -7 5 C-4.88437775 2.67281553 -2.94982021 1.14186589 0 0 Z " fill="#4A4B70" transform="translate(108,111)"/>
<path d="M0 0 C0.33 0 0.66 0 1 0 C1 3.3 1 6.6 1 10 C-0.32 10 -1.64 10 -3 10 C-2.01 6.7 -1.02 3.4 0 0 Z " fill="#1E1D44" transform="translate(3,70)"/>
<path d="M0 0 C1.26706235 3.80118706 0.57172296 5.3850372 -1 9 C-1.99 9.33 -2.98 9.66 -4 10 C-3.5205537 5.78087253 -2.83374881 3.20336822 0 0 Z " fill="#212142" transform="translate(14,50)"/>
<path d="M0 0 C0.99 0.66 1.98 1.32 3 2 C0.525 3.485 0.525 3.485 -2 5 C-2.66 4.01 -3.32 3.02 -4 2 C-6.05925139 1.27617533 -6.05925139 1.27617533 -8 1 C-5.01413769 0.00471256 -3.10857 -0.23314275 0 0 Z " fill="#D0CFE0" transform="translate(438,380)"/>
<path d="M0 0 C1.32 0.66 2.64 1.32 4 2 C2.56445975 2.50559908 1.1264798 3.0042749 -0.3125 3.5 C-1.51326172 3.91765625 -1.51326172 3.91765625 -2.73828125 4.34375 C-5 5 -5 5 -8 5 C-7.67 4.01 -7.34 3.02 -7 2 C-3.535 1.505 -3.535 1.505 0 1 C0 0.67 0 0.34 0 0 Z " fill="#424268" transform="translate(410,357)"/>
<path d="M0 0 C1.48199902 0.44909061 2.96055236 0.90956564 4.4375 1.375 C5.26121094 1.63023437 6.08492187 1.88546875 6.93359375 2.1484375 C9 3 9 3 10 5 C3.51707705 5.3669579 3.51707705 5.3669579 1.0625 3.625 C0 2 0 2 0 0 Z " fill="#3C3B66" transform="translate(198,346)"/>
<path d="M0 0 C0.99 0.495 0.99 0.495 2 1 C2.99847037 5.62927172 3.013244 9.38411065 2 14 C1.67 14 1.34 14 1 14 C0.67 9.38 0.34 4.76 0 0 Z " fill="#2B2A56" transform="translate(454,274)"/>
<path d="M0 0 C0.66 0 1.32 0 2 0 C2.99 3.63 3.98 7.26 5 11 C4.01 10.67 3.02 10.34 2 10 C1.34 6.7 0.68 3.4 0 0 Z " fill="#323359" transform="translate(477,258)"/>
<path d="M0 0 C2.40072955 2.88087546 4.47291037 5.56404834 6 9 C4.02 8.34 2.04 7.68 0 7 C0 4.69 0 2.38 0 0 Z " fill="#3D3D64" transform="translate(42,255)"/>
<path d="M0 0 C3.33717549 1.3809002 5.22301036 2.8201238 7 6 C6.57421875 8.1328125 6.57421875 8.1328125 6 10 C4.99723227 8.52270825 3.99785546 7.04311423 3 5.5625 C2.443125 4.73878906 1.88625 3.91507813 1.3125 3.06640625 C0 1 0 1 0 0 Z " fill="#3A3C61" transform="translate(71,249)"/>
<path d="M0 0 C0.33 0 0.66 0 1 0 C1 2.97 1 5.94 1 9 C0.01 9 -0.98 9 -2 9 C-2.33 8.34 -2.66 7.68 -3 7 C-2.06421005 4.64018187 -1.06652192 2.30368736 0 0 Z " fill="#47476C" transform="translate(57,159)"/>
<path d="M0 0 C0 0.33 0 0.66 0 1 C-8.42857143 3.28571429 -8.42857143 3.28571429 -13 3 C-12 1 -12 1 -10.0390625 0.33203125 C-9.24242187 0.16058594 -8.44578125 -0.01085937 -7.625 -0.1875 C-6.43777344 -0.45626953 -6.43777344 -0.45626953 -5.2265625 -0.73046875 C-3 -1 -3 -1 0 0 Z " fill="#3A3960" transform="translate(416,386)"/>
<path d="M0 0 C3.82097239 0.53069061 6.06171403 1.49701566 9 4 C6 5 6 5 3.375 4.25 C1 3 1 3 0 0 Z " fill="#32335D" transform="translate(170,363)"/>
<path d="M0 0 C3 2 3 2 3.6875 4.625 C3.790625 5.40875 3.89375 6.1925 4 7 C1.08482708 5.92598892 -0.77810176 5.22189824 -3 3 C-2.01 2.67 -1.02 2.34 0 2 C0 1.34 0 0.68 0 0 Z " fill="#DFE0EA" transform="translate(164,354)"/>
<path d="M0 0 C3.96 1.98 3.96 1.98 8 4 C8 4.33 8 4.66 8 5 C5.69 5 3.38 5 1 5 C0.67 3.35 0.34 1.7 0 0 Z " fill="#31305C" transform="translate(138,345)"/>
<path d="M0 0 C0.53625 0.226875 1.0725 0.45375 1.625 0.6875 C-1.24664566 3.39022533 -2.68491841 4.63541837 -6.6875 4.9375 C-7.574375 4.855 -8.46125 4.7725 -9.375 4.6875 C-7.60317726 1.14385451 -3.87334298 -0.50965039 0 0 Z " fill="#C7C8D9" transform="translate(216.375,262.3125)"/>
<path d="M0 0 C2.96052484 3.36423277 3.92289822 6.69159287 5 11 C0.68393782 8.00518135 0.68393782 8.00518135 -1 6 C-0.875 2.6875 -0.875 2.6875 0 0 Z " fill="#CDCEDB" transform="translate(469,241)"/>
<path d="M0 0 C3.63 1.32 7.26 2.64 11 4 C9.02 4.99 9.02 4.99 7 6 C4.35435928 5.06434658 2.37036624 3.54985485 0 2 C0 1.34 0 0.68 0 0 Z " fill="#414169" transform="translate(218,355)"/>
<path d="M0 0 C0.66 1.32 1.32 2.64 2 4 C-0.31 5.32 -2.62 6.64 -5 8 C-3.8141763 4.62496331 -2.72426311 2.35277269 0 0 Z " fill="#34345E" transform="translate(460,346)"/>
<path d="M0 0 C4.75 0.75 4.75 0.75 7 3 C6.01 3.495 6.01 3.495 5 4 C5.33 4.66 5.66 5.32 6 6 C3.5625 5.25 3.5625 5.25 1 4 C0.1875 1.875 0.1875 1.875 0 0 Z " fill="#DEDFEC" transform="translate(184,335)"/>
<path d="M0 0 C2.18975773 3.28463659 2.99806563 6.20696275 4 10 C3.34 10.66 2.68 11.32 2 12 C0.40861915 7.82262526 -0.21278058 4.46839215 0 0 Z " fill="#404166" transform="translate(32,233)"/>
<path d="M0 0 C2.31 1.65 4.62 3.3 7 5 C6.34 5.66 5.68 6.32 5 7 C4.01 6.34 3.02 5.68 2 5 C1.01 5 0.02 5 -1 5 C-0.67 3.35 -0.34 1.7 0 0 Z " fill="#DFE0E9" transform="translate(418,183)"/>
<path d="M0 0 C0.99 0 1.98 0 3 0 C1.50902342 3.7952131 -0.75700849 5.61042731 -4 8 C-4 7.01 -4 6.02 -4 5 C-3.34 5 -2.68 5 -2 5 C-2 4.01 -2 3.02 -2 2 C-1.34 2 -0.68 2 0 2 C0 1.34 0 0.68 0 0 Z " fill="#39375E" transform="translate(52,128)"/>
<path d="M0 0 C3.81684226 1.55500981 6.19195732 4.03595495 9 7 C8.67 7.99 8.34 8.98 8 10 C8 9.34 8 8.68 8 8 C7.4225 7.79375 6.845 7.5875 6.25 7.375 C3.18589456 5.50249112 1.84460032 3.03041481 0 0 Z " fill="#323152" transform="translate(473,28)"/>
<path d="M0 0 C1.50433594 0.29197266 1.50433594 0.29197266 3.0390625 0.58984375 C4.19535156 0.82380859 4.19535156 0.82380859 5.375 1.0625 C5.375 1.3925 5.375 1.7225 5.375 2.0625 C3.95876784 2.11697047 2.54191809 2.15550508 1.125 2.1875 C0.33609375 2.21070313 -0.4528125 2.23390625 -1.265625 2.2578125 C-3.83231941 2.0453378 -5.4166067 1.34904105 -7.625 0.0625 C-4.81015955 -1.34492022 -3.05563887 -0.60402164 0 0 Z " fill="#36385F" transform="translate(247.625,389.9375)"/>
<path d="M0 0 C1.98 0 3.96 0 6 0 C6.33 0.99 6.66 1.98 7 3 C9.01508358 3.73323796 9.01508358 3.73323796 11 4 C10.01 4.495 10.01 4.495 9 5 C6.8359375 4.22265625 6.8359375 4.22265625 4.375 3.0625 C3.55773437 2.68222656 2.74046875 2.30195313 1.8984375 1.91015625 C1.27195313 1.60980469 0.64546875 1.30945313 0 1 C0 0.67 0 0.34 0 0 Z " fill="#C3C3D6" transform="translate(177,365)"/>
<path d="M0 0 C1.65 0 3.3 0 5 0 C5.33 1.65 5.66 3.3 6 5 C3.5625 4.1875 3.5625 4.1875 1 3 C0.67 2.01 0.34 1.02 0 0 Z " fill="#3D3B63" transform="translate(194,352)"/>
<path d="M0 0 C0.99 0.33 1.98 0.66 3 1 C1.35 3.64 -0.3 6.28 -2 9 C-3 5 -3 5 -1.5625 2.25 C-1.046875 1.5075 -0.53125 0.765 0 0 Z " fill="#33345A" transform="translate(444,327)"/>
<path d="M0 0 C0.66 0 1.32 0 2 0 C1.01 2.97 0.02 5.94 -1 9 C-1.66 8.34 -2.32 7.68 -3 7 C-2.61121812 3.98694043 -1.73543126 2.60314689 0 0 Z " fill="#33315B" transform="translate(451,314)"/>
<path d="M0 0 C0 0.66 0 1.32 0 2 C-2.97 2.66 -5.94 3.32 -9 4 C-8.67 3.01 -8.34 2.02 -8 1 C-5.17884816 -0.07009208 -3.09455459 0 0 0 Z " fill="#262852" transform="translate(206,265)"/>
<path d="M0 0 C0.99 0.33 1.98 0.66 3 1 C3 1.99 3 2.98 3 4 C3.99 4.33 4.98 4.66 6 5 C6 6.65 6 8.3 6 10 C3.25722422 6.80009492 1.3697164 3.99500618 0 0 Z " fill="#373A5C" transform="translate(65,239)"/>
<path d="M0 0 C1.33617352 0.97528737 2.6688751 1.95533319 4 2.9375 C4.7425 3.48277344 5.485 4.02804688 6.25 4.58984375 C6.8275 5.05519531 7.405 5.52054688 8 6 C8 6.33 8 6.66 8 7 C5.6875 7.3125 5.6875 7.3125 3 7 C1.18116991 4.6167054 0 3.04181663 0 0 Z " fill="#454369" transform="translate(392,193)"/>
<path d="M0 0 C7.50769231 -0.36923077 7.50769231 -0.36923077 10 1.5 C10.495 2.2425 10.495 2.2425 11 3 C9 4 9 4 6.8359375 3.44140625 C6.02382813 3.15136719 5.21171875 2.86132812 4.375 2.5625 C3.55773437 2.27503906 2.74046875 1.98757812 1.8984375 1.69140625 C1.27195312 1.46324219 0.64546875 1.23507813 0 1 C0 0.67 0 0.34 0 0 Z " fill="#555474" transform="translate(307,125)"/>
<path d="M0 0 C5.75 -0.125 5.75 -0.125 8 1 C8 1.99 8 2.98 8 4 C5.64828869 3.40138258 3.3140622 2.73075648 1 2 C0.67 1.34 0.34 0.68 0 0 Z " fill="#1B193D" transform="translate(64,491)"/>
<path d="M0 0 C1.65 0.33 3.3 0.66 5 1 C4.67 2.32 4.34 3.64 4 5 C2.35 4.67 0.7 4.34 -1 4 C-0.67 2.68 -0.34 1.36 0 0 Z " fill="#EDEEEC" transform="translate(230,356)"/>
<path d="M0 0 C1.98 0.66 3.96 1.32 6 2 C6.33 3.65 6.66 5.3 7 7 C5.83040013 6.02433888 4.66438823 5.044375 3.5 4.0625 C2.8503125 3.51722656 2.200625 2.97195313 1.53125 2.41015625 C1.0259375 1.94480469 0.520625 1.47945313 0 1 C0 0.67 0 0.34 0 0 Z " fill="#353558" transform="translate(90,274)"/>
<path d="M0 0 C2.45823172 3.68734758 3.01242616 6.69699971 4 11 C3.01 11 2.02 11 1 11 C0.67 7.37 0.34 3.74 0 0 Z " fill="#CCCEDE" transform="translate(474,252)"/>
<path d="M0 0 C2.50037734 2.17424117 3.43628586 3.73045798 4 7 C2.68 6.67 1.36 6.34 0 6 C-0.38218767 4.34385343 -0.71395102 2.67542976 -1 1 C-0.67 0.67 -0.34 0.34 0 0 Z " fill="#DDDEE8" transform="translate(60,232)"/>
<path d="M0 0 C0.66 0 1.32 0 2 0 C2.99 1.98 3.98 3.96 5 6 C4.34 6.66 3.68 7.32 3 8 C3 7.01 3 6.02 3 5 C2.01 5 1.02 5 0 5 C0 3.35 0 1.7 0 0 Z " fill="#242448" transform="translate(495,55)"/>
<path d="M0 0 C2.97 0.33 5.94 0.66 9 1 C9.33 1.99 9.66 2.98 10 4 C6.58978257 3.21302675 3.31114834 2.12880057 0 1 C0 0.67 0 0.34 0 0 Z " fill="#221A3D" transform="translate(72,495)"/>
<path d="M0 0 C1.32 0.66 2.64 1.32 4 2 C2.35 3.32 0.7 4.64 -1 6 C-1.625 4.125 -1.625 4.125 -2 2 C-1.34 1.34 -0.68 0.68 0 0 Z " fill="#1B1937" transform="translate(471,468)"/>
<path d="M0 0 C4.455 0.99 4.455 0.99 9 2 C9 2.33 9 2.66 9 3 C6.36 3 3.72 3 1 3 C0.67 2.01 0.34 1.02 0 0 Z " fill="#434266" transform="translate(261,370)"/>
<path d="M0 0 C0.99 0.33 1.98 0.66 3 1 C3 1.66 3 2.32 3 3 C3.99 3.33 4.98 3.66 6 4 C4.35 4.33 2.7 4.66 1 5 C0.67 3.35 0.34 1.7 0 0 Z " fill="#F4F4F9" transform="translate(204,344)"/>
<path d="M0 0 C0.66 0.66 1.32 1.32 2 2 C-0.97 4.475 -0.97 4.475 -4 7 C-4 5.35 -4 3.7 -4 2 C-2.68 1.34 -1.36 0.68 0 0 Z " fill="#36365B" transform="translate(437,338)"/>
<path d="M0 0 C1.98 0.99 3.96 1.98 6 3 C5.34 3.66 4.68 4.32 4 5 C1.875 4.625 1.875 4.625 0 4 C0 2.68 0 1.36 0 0 Z " fill="#322F5F" transform="translate(175,333)"/>
<path d="M0 0 C0.66 0 1.32 0 2 0 C2.66 1.32 3.32 2.64 4 4 C0.71023192 5.09658936 -0.71303767 4.79953138 -4 4 C-3.34 3.67 -2.68 3.34 -2 3 C-1.67 2.34 -1.34 1.68 -1 1 C-0.67 0.67 -0.34 0.34 0 0 Z " fill="#242665" transform="translate(168,331)"/>
<path d="M0 0 C1.32 0 2.64 0 4 0 C4.33 2.31 4.66 4.62 5 7 C4.34 7 3.68 7 3 7 C0 2.61538462 0 2.61538462 0 0 Z " fill="#E0E1ED" transform="translate(34,238)"/>
<path d="M0 0 C1.32 0 2.64 0 4 0 C4 1.65 4 3.3 4 5 C2.68 4.67 1.36 4.34 0 4 C0 2.68 0 1.36 0 0 Z " fill="#363560" transform="translate(55,217)"/>
<path d="M0 0 C2.875 -0.1875 2.875 -0.1875 6 0 C6.66 0.99 7.32 1.98 8 3 C7.34 3 6.68 3 6 3 C5.67 3.66 5.34 4.32 5 5 C3.35 3.35 1.7 1.7 0 0 Z " fill="#373762" transform="translate(411,177)"/>
<path d="M0 0 C1.65 0 3.3 0 5 0 C5 0.66 5 1.32 5 2 C5.99 2 6.98 2 8 2 C8.33 2.99 8.66 3.98 9 5 C5.22454612 3.90931332 2.52956528 3.0916909 0 0 Z " fill="#CCCBDB" transform="translate(342,159)"/>
<path d="M0 0 C2.97 0 5.94 0 9 0 C9 0.66 9 1.32 9 2 C9.66 2.33 10.32 2.66 11 3 C6.72213252 2.50639991 3.90432869 1.95216435 0 0 Z " fill="#C7C5D8" transform="translate(268,130)"/>
<path d="M0 0 C2.31 0.33 4.62 0.66 7 1 C7 1.99 7 2.98 7 4 C4.97954558 3.39816251 2.97888961 2.72693904 1 2 C0.67 1.34 0.34 0.68 0 0 Z " fill="#1D1C3E" transform="translate(57,487)"/>
<path d="M0 0 C0.99 0 1.98 0 3 0 C3 0.66 3 1.32 3 2 C3.66 2.33 4.32 2.66 5 3 C2.525 4.485 2.525 4.485 0 6 C0 4.02 0 2.04 0 0 Z " fill="#1F1C3B" transform="translate(465,472)"/>
<path d="M0 0 C-0.33 0.66 -0.66 1.32 -1 2 C-4.3 2 -7.6 2 -11 2 C-6.98764085 -0.6749061 -4.6342454 -1.48957888 0 0 Z " fill="#575678" transform="translate(414,373)"/>
<path d="M0 0 C-0.33 1.32 -0.66 2.64 -1 4 C-1.66 4 -2.32 4 -3 4 C-3 3.34 -3 2.68 -3 2 C-4.98 2.33 -6.96 2.66 -9 3 C-6.31795079 0.31795079 -3.73391546 0 0 0 Z " fill="#47486F" transform="translate(423,369)"/>
<path d="M0 0 C0.8125 1.6875 0.8125 1.6875 1 4 C-1.4375 6.75 -1.4375 6.75 -4 9 C-4 5.00095031 -2.27413033 3.19799578 0 0 Z " fill="#CFD0DF" transform="translate(445,330)"/>
<path d="M0 0 C5.75 1.75 5.75 1.75 8 4 C6.25 4.6875 6.25 4.6875 4 5 C1.75 3.6875 1.75 3.6875 0 2 C0 1.34 0 0.68 0 0 Z " fill="#C7C9E0" transform="translate(166,325)"/>
<path d="M0 0 C1.9375 0.75 1.9375 0.75 4 2 C4.75 4.125 4.75 4.125 5 6 C4.01 6 3.02 6 2 6 C1.34 4.02 0.68 2.04 0 0 Z " fill="#2C2B54" transform="translate(82,304)"/>
<path d="M0 0 C2.15377564 2.62198774 3.40072174 4.64404172 4 8 C3.01 8 2.02 8 1 8 C-0.35439668 5.29120665 -0.06501451 2.99066732 0 0 Z " fill="#525072" transform="translate(36,243)"/>
<path d="M0 0 C0.66 0.33 1.32 0.66 2 1 C2.33333333 2.66666667 2.66666667 4.33333333 3 6 C3.66 6.33 4.32 6.66 5 7 C4.01 7 3.02 7 2 7 C0.25 5.1875 0.25 5.1875 -1 3 C-0.67 2.01 -0.34 1.02 0 0 Z " fill="#35335A" transform="translate(454,214)"/>
<path d="M0 0 C1.98 1.65 3.96 3.3 6 5 C5.67 5.66 5.34 6.32 5 7 C4.01 6.67 3.02 6.34 2 6 C0.8125 2.9375 0.8125 2.9375 0 0 Z " fill="#393B62" transform="translate(400,200)"/>
<path d="M0 0 C0.66 0.33 1.32 0.66 2 1 C2 2.65 2 4.3 2 6 C0.02 4.68 -1.96 3.36 -4 2 C-2.125 0.9375 -2.125 0.9375 0 0 Z " fill="#DCDDE7" transform="translate(390,187)"/>
<path d="M0 0 C2 3 2 3 2 6 C1.01 6 0.02 6 -1 6 C-1.33 6.99 -1.66 7.98 -2 9 C-1.125 2.25 -1.125 2.25 0 0 Z " fill="#CECEDC" transform="translate(29,168)"/>
<path d="M0 0 C0.66 0.33 1.32 0.66 2 1 C1.01 4.3 0.02 7.6 -1 11 C-2.13757948 6.44968209 -1.4283779 4.36915594 0 0 Z " fill="#ECEDF8" transform="translate(54,160)"/>
<path d="M0 0 C2.97 0 5.94 0 9 0 C5.71299843 1.64350079 3.52069985 2.41321669 0 3 C0 2.01 0 1.02 0 0 Z " fill="#E1E2EE" transform="translate(113,106)"/>
<path d="M0 0 C0.33 0.99 0.66 1.98 1 3 C0.01 3.99 -0.98 4.98 -2 6 C-2.99 5.34 -3.98 4.68 -5 4 C-3.35 2.68 -1.7 1.36 0 0 Z " fill="#272547" transform="translate(43,19)"/>
</svg>
